<svg width="53" height="308" viewBox="0 0 53 308" fill="none" xmlns="http://www.w3.org/2000/svg">
<rect y="0.199997" width="52.3385" height="307.8" fill="black"/>
<path d="M37 208.673L37 217.153L18.2871 217.153L18.2871 208.063C18.321 205.77 18.9853 204.145 20.2803 203.188C21.0758 202.613 22.028 202.325 23.1367 202.325C24.2793 202.325 25.1976 202.613 25.8916 203.188C26.2809 203.51 26.6364 203.984 26.958 204.61C27.305 203.654 27.8551 202.935 28.6084 202.452C29.3616 201.961 30.2757 201.716 31.3506 201.716C32.4593 201.716 33.4538 201.995 34.334 202.554C34.918 202.909 35.4088 203.354 35.8066 203.887C36.2637 204.488 36.5768 205.199 36.7461 206.02C36.9154 206.832 37 207.716 37 208.673ZM28.7607 208.762L28.7607 213.421L33.75 213.421L33.75 208.825C33.75 208.004 33.64 207.365 33.4199 206.908C33.0137 206.079 32.235 205.664 31.084 205.664C30.1107 205.664 29.4421 206.066 29.0781 206.87C28.875 207.319 28.7692 207.949 28.7607 208.762ZM25.1934 206.819C24.8887 206.312 24.3428 206.058 23.5557 206.058C22.6839 206.058 22.1084 206.396 21.8291 207.073C21.6344 207.657 21.5371 208.402 21.5371 209.308L21.5371 213.421L25.6631 213.421L25.6631 208.825C25.6631 208.004 25.5065 207.336 25.1934 206.819ZM29.6621 190.48L29.6621 194.518L37 194.518L37 198.339L18.2871 198.339L18.2871 189.16C18.3125 187.848 18.4733 186.841 18.7695 186.139C19.0658 185.428 19.5016 184.827 20.0771 184.336C20.5511 183.93 21.0758 183.608 21.6514 183.371C22.2269 183.134 22.8828 183.016 23.6191 183.016C24.5078 183.016 25.3838 183.24 26.2471 183.688C27.1019 184.137 27.707 184.878 28.0625 185.91C28.4095 185.047 28.9046 184.437 29.5478 184.082C30.1826 183.718 31.1559 183.536 32.4678 183.536L33.7246 183.536C34.5794 183.536 35.1592 183.502 35.4639 183.435C35.9463 183.333 36.3018 183.096 36.5303 182.724L37 182.724L37 187.027C36.5853 187.146 36.251 187.23 35.9971 187.281C35.4723 187.383 34.9349 187.438 34.3848 187.446L32.6455 187.472C31.4521 187.489 30.6566 187.709 30.2588 188.132C29.861 188.547 29.6621 189.329 29.6621 190.48ZM26.2598 188.106C25.9043 187.328 25.2018 186.938 24.1523 186.938C23.0182 186.938 22.2565 187.315 21.8672 188.068C21.6471 188.492 21.5371 189.126 21.5371 189.973L21.5371 194.518L26.5644 194.518L26.5644 190.087C26.5644 189.207 26.4629 188.547 26.2598 188.106ZM37.5205 171.361C37.5205 174.036 36.7926 176.08 35.3369 177.493C33.5511 179.389 30.9782 180.337 27.6182 180.337C24.1904 180.337 21.6175 179.389 19.8994 177.493C18.4437 176.08 17.7158 174.036 17.7158 171.361C17.7158 168.687 18.4437 166.643 19.8994 165.229C21.6175 163.342 24.1904 162.398 27.6182 162.398C30.9782 162.398 33.5511 163.342 35.3369 165.229C36.7926 166.643 37.5205 168.687 37.5205 171.361ZM32.4932 167.667C31.3506 166.761 29.7256 166.309 27.6182 166.309C25.5192 166.309 23.8984 166.766 22.7559 167.68C21.6048 168.585 21.0293 169.812 21.0293 171.361C21.0293 172.91 21.6006 174.146 22.7432 175.068C23.8857 175.991 25.5107 176.452 27.6182 176.452C29.7256 176.452 31.3506 175.991 32.4932 175.068C33.6357 174.146 34.207 172.91 34.207 171.361C34.207 169.812 33.6357 168.581 32.4932 167.667ZM37 144.27L37 148.18L23.708 155.822L37 155.822L37 159.466L18.2871 159.466L18.2871 155.365L31.3506 147.913L18.2871 147.913L18.2871 144.27L37 144.27ZM37 127.372L37 141.934L33.6992 141.934L21.6006 132.272L21.6006 141.692L18.2871 141.692L18.2871 127.397L21.4228 127.397L33.6992 137.186L33.6992 127.372L37 127.372ZM28.8242 111.693L28.8242 120.783L33.6357 120.783L33.6357 110.424L37 110.424L37 124.604L18.2871 124.604L18.2871 110.881L21.6006 110.881L21.6006 120.783L25.5742 120.783L25.5742 111.693L28.8242 111.693ZM30.2715 92.1934L30.2715 96.167L37 96.167L37 100.052L18.2871 100.052L18.2871 91.9014C18.2871 90.0225 18.7695 88.5244 19.7344 87.4072C20.6992 86.29 22.193 85.7314 24.2158 85.7314C26.4248 85.7314 27.9863 86.29 28.9004 87.4072C29.8144 88.5244 30.2715 90.1198 30.2715 92.1934ZM26.374 90.3652C25.9254 89.8574 25.2145 89.6035 24.2412 89.6035C23.2679 89.6035 22.5739 89.8617 22.1592 90.3779C21.7445 90.8857 21.5371 91.6009 21.5371 92.5234L21.5371 96.167L27.0469 96.167L27.0469 92.5234C27.0469 91.6009 26.8226 90.8815 26.374 90.3652ZM33.1533 73.7725L33.1533 80.666L37 81.9609L37 86.0488L18.2871 79.3711L18.2871 74.9531L37 68.3262L37 72.5664L33.1533 73.7725ZM29.9287 74.8643L22.5654 77.2002L29.9287 79.6123L29.9287 74.8643ZM35.6035 52.7363C36.8815 54.1328 37.5205 55.9186 37.5205 58.0937C37.5205 60.7852 36.6572 62.901 34.9307 64.4414C33.1956 65.9818 30.8174 66.752 27.7959 66.752C24.529 66.752 22.0111 65.876 20.2422 64.124C18.7018 62.6006 17.9316 60.6624 17.9316 58.3096C17.9316 55.1611 18.9642 52.859 21.0293 51.4033C22.1888 50.5993 23.3525 50.1676 24.5205 50.1084L24.5205 54.0186C23.6234 54.2725 22.9463 54.5983 22.4892 54.9961C21.6767 55.707 21.2705 56.7607 21.2705 58.1572C21.2705 59.5791 21.846 60.7005 22.9971 61.5215C24.1396 62.3424 25.7604 62.7529 27.8594 62.7529C29.9583 62.7529 31.5325 62.3213 32.582 61.458C33.623 60.5863 34.1435 59.4818 34.1435 58.1445C34.1435 56.7734 33.695 55.7282 32.7978 55.0088C32.3154 54.611 31.5918 54.2809 30.6269 54.0186L30.6269 50.1465C32.6667 50.485 34.3255 51.3483 35.6035 52.7363ZM37 30.5703L37 35.5977L28.8242 41.374L30.7412 43.2402L37 43.2402L37 47.0869L18.2871 47.0869L18.2871 43.2402L25.9932 43.2402L18.2871 36.0166L18.2871 30.9639L25.9932 38.6318L37 30.5703ZM34.2959 21.5693C34.2959 20.6468 34.1943 19.8978 33.9912 19.3223C33.6019 18.2305 32.8782 17.6846 31.8203 17.6846C31.2025 17.6846 30.7243 17.9554 30.3857 18.4971C30.0557 19.0387 29.7637 19.8893 29.5098 21.0488L29.0654 23.0293C28.6253 24.9759 28.1471 26.3216 27.6308 27.0664C26.7676 28.3275 25.4176 28.958 23.581 28.958C21.9053 28.958 20.513 28.3486 19.4043 27.1299C18.2956 25.9111 17.7412 24.1211 17.7412 21.7598C17.7412 19.7878 18.2659 18.1077 19.3154 16.7197C20.3564 15.3232 21.8714 14.5911 23.8603 14.5234L23.8603 18.2812C22.7347 18.349 21.9349 18.8398 21.4609 19.7539C21.1478 20.3633 20.9912 21.1208 20.9912 22.0264C20.9912 23.0335 21.1943 23.8376 21.6006 24.4385C22.0068 25.0394 22.5739 25.3398 23.3017 25.3398C23.9704 25.3398 24.4697 25.0436 24.7998 24.4512C25.0198 24.0703 25.278 23.2578 25.5742 22.0137L26.3486 18.7891C26.6872 17.3757 27.14 16.3092 27.707 15.5898C28.5872 14.4727 29.861 13.9141 31.5283 13.9141C33.2379 13.9141 34.6598 14.57 35.7939 15.8818C36.9196 17.1852 37.4824 19.0303 37.4824 21.417C37.4824 23.8545 36.928 25.7715 35.8193 27.168C34.7021 28.5645 33.1702 29.2627 31.2236 29.2627L31.2236 25.5303C32.0784 25.4118 32.7174 25.179 33.1406 24.832C33.9108 24.1973 34.2959 23.1097 34.2959 21.5693Z" fill="white"/>
</svg>
