<svg width="226" height="226" viewBox="0 0 226 226" fill="none" xmlns="http://www.w3.org/2000/svg">
<path d="M133.127 153.917C129.674 150.739 126.167 147.533 122.084 143.806C121.235 147.505 121.974 150.602 121.481 153.835H117.617V129.091C122.742 129.091 127.921 128.899 133.045 129.173C135.676 129.31 136.58 130.653 136.689 133.366C136.799 135.53 136.744 137.722 136.689 139.915C136.607 142.984 135.648 143.998 132.607 144.244C131.593 144.327 130.551 144.354 128.743 144.436C132.195 148.163 135.867 150.711 139.402 153.945H133.045L133.127 153.917ZM121.728 132.626V140.572H132.195V132.626H121.728Z" fill="#828282" fill-opacity="0.25"/>
<path d="M92.4072 129.611C94.1884 129.31 95.3941 128.954 96.5998 128.926C100.436 128.844 104.272 128.844 108.136 128.926C111.644 129.008 112.877 130.187 113.014 133.585C113.206 138.462 113.343 143.34 113.315 148.218C113.315 152.52 112.082 153.808 107.78 153.999C104.053 154.164 100.299 154.191 96.5724 153.999C92.736 153.808 91.4481 152.355 91.3659 148.491C91.2837 143.723 91.2015 138.928 91.3111 134.16C91.3385 132.68 91.9962 131.228 92.4072 129.584V129.611ZM108.958 150.327V132.626H95.7503V150.327H108.958Z" fill="#828282" fill-opacity="0.25"/>
<path d="M162.831 146.464H166.284C166.476 147.697 166.668 148.875 166.887 150.3H178.862V142.984C176.094 142.984 173.436 142.984 170.778 142.984C164.393 142.984 163.626 142.216 163.599 135.804C163.599 135.503 163.599 135.174 163.599 134.873C163.653 129.94 164.722 128.899 169.709 128.872C171.792 128.872 173.875 128.872 175.957 128.872C181.164 128.872 182.287 130.05 182.15 135.695C181.246 135.804 180.287 135.887 179.163 136.024C178.971 134.79 178.807 133.804 178.643 132.598H167.545V139.175C169.024 139.257 170.449 139.339 171.847 139.367C173.929 139.394 176.012 139.312 178.094 139.421C181.273 139.558 182.671 140.929 182.78 144.025C182.863 145.998 182.78 147.971 182.753 149.944C182.725 151.999 181.684 153.479 179.656 153.588C175.217 153.835 170.723 154.082 166.312 153.78C163.215 153.561 162.256 151.067 162.859 146.436L162.831 146.464Z" fill="#828282" fill-opacity="0.25"/>
<path d="M45.9056 146.519H49.3035C49.4405 147.834 49.5775 149.012 49.7419 150.355H60.8947V143.422C56.2089 142.189 51.2764 144.135 46.618 141.97C44.7821 138.572 45.1931 134.928 45.9604 131.447C46.1796 130.461 48.043 129.283 49.2213 129.173C52.9206 128.844 56.7021 128.817 60.4288 129.036C63.4979 129.228 64.7584 131.557 64.4022 135.859C63.4979 135.914 62.5114 135.996 61.4701 136.051C61.1413 134.818 60.8673 133.749 60.5658 132.626H49.4131V139.422C51.4683 139.422 53.3864 139.422 55.3046 139.422C57.0583 139.422 58.8395 139.339 60.5932 139.476C63.3609 139.668 64.5666 140.792 64.7584 143.532C64.9228 146.217 64.7858 148.903 64.7858 151.15C63.4431 153.561 61.5797 154.054 59.5245 154.082C56.9213 154.137 54.3181 154.164 51.7423 154.164C46.3988 154.109 44.8369 152.136 45.9056 146.519Z" fill="#828282" fill-opacity="0.25"/>
<path d="M68.7595 129.008C73.9112 129.008 78.871 128.844 83.8308 129.063C86.7354 129.2 87.7493 130.598 87.8863 133.585C87.996 135.777 87.996 137.942 87.9137 140.134C87.8315 142.792 86.5436 144.08 83.8034 144.162C80.2959 144.271 76.7884 144.162 72.9521 144.162V153.89C71.4449 153.972 70.2666 154.027 68.7595 154.082V128.954V129.008ZM83.3924 132.598H73.0617V141.257C76.7062 140.435 80.1589 141.915 83.3924 140.051V132.598Z" fill="#828282" fill-opacity="0.25"/>
<path d="M139.265 129.063H160.666C160.749 130.105 160.831 131.009 160.913 132.269H152.309C151.87 139.668 152.665 146.793 152.172 153.972H147.924V132.543H139.567C139.484 131.31 139.402 130.324 139.293 129.036L139.265 129.063Z" fill="#828282" fill-opacity="0.25"/>
<path d="M54.9485 85.8225C52.4 89.6588 49.8516 93.4677 47.3032 97.3041L47.7416 98.0165H62.0457L45.8235 123.446H62.0457L77.3636 97.9617H90.7359C93.4487 93.8787 96.052 89.9602 98.8196 85.795H54.9485V85.8225Z" fill="#828282" fill-opacity="0.25"/>
<path d="M144.225 60.1739C138.498 69.0797 133.182 77.3551 127.784 85.7676H100.436C104.492 94.2897 108.356 102.401 112.247 110.539C110.082 111.334 93.2568 111.553 81.3642 111.252L74.1848 123.501H117.892C120.413 119.527 123.016 115.417 125.674 111.224C123.564 106.703 121.536 102.319 119.262 97.441C125.016 97.2218 130.086 97.0575 134.908 96.8657C137.95 92.3717 140.8 88.2064 144.061 83.3836C150.939 94.4815 168.887 123.391 168.887 123.391H182.095C169.408 102.209 156.94 81.4107 144.225 60.1465V60.1739Z" fill="#828282" fill-opacity="0.25"/>
<path d="M71.6093 60.1465H128.387C125.701 64.3664 123.208 68.2575 120.687 72.2308H63.8818C66.5399 68.0931 69.0061 64.2294 71.6093 60.1465Z" fill="#828282" fill-opacity="0.25"/>
<path fill-rule="evenodd" clip-rule="evenodd" d="M226 113C226 175.408 175.408 226 113 226C50.5918 226 0 175.408 0 113C0 50.5918 50.5918 0 113 0C175.408 0 226 50.5918 226 113ZM113 209.623C166.364 209.623 209.623 166.364 209.623 113C209.623 59.6365 166.364 16.3768 113 16.3768C59.6365 16.3768 16.3768 59.6365 16.3768 113C16.3768 166.364 59.6365 209.623 113 209.623Z" fill="#828282" fill-opacity="0.25"/>
</svg>
