<?xml version="1.0" encoding="UTF-8"?>
<svg id="Layer_2" data-name="Layer 2" xmlns="http://www.w3.org/2000/svg" viewBox="0 0 535.52 68.05">
  <defs>
    <style>
      .cls-1 {
        fill: #231f20;
        stroke-width: 0px;
      }
    </style>
  </defs>
  <g id="Layer_1-2" data-name="Layer 1">
    <g>
      <g>
        <path class="cls-1" d="m402.4,67.41c-9.28-8.5-18.64-17.08-29.59-27.11-2.25,9.91-.28,18.21-1.6,26.88h-10.34V.87c13.74,0,27.6-.49,41.39.2,7.05.35,9.48,3.98,9.8,11.21.26,5.83.18,11.69.03,17.53-.22,8.25-2.79,10.92-10.93,11.63-2.73.24-5.48.27-10.33.5,9.26,9.98,19.09,16.81,28.6,25.46h-17.04Zm-30.56-57.06v21.31h28.04V10.36h-28.04Z"/>
        <path class="cls-1" d="m293.25,2.23c4.75-.79,8-1.75,11.27-1.81,10.29-.2,20.59-.22,30.89,0,9.37.19,12.73,3.35,13.08,12.52.5,13.06.87,26.14.81,39.21-.05,11.57-3.27,14.95-14.83,15.5-9.99.48-20.05.53-30.04.05-10.28-.5-13.77-4.43-13.98-14.79-.25-12.8-.43-25.6-.14-38.39.09-3.94,1.83-7.84,2.94-12.28Zm44.34,55.55V10.37h-35.37v47.42h35.37Z"/>
        <path class="cls-1" d="m482,47.38h9.29c.53,3.32,1.03,6.5,1.63,10.31h32.1v-19.6c-7.45,0-14.57.01-21.69,0-17.12-.04-19.16-2.09-19.21-19.23,0-.84-.03-1.67-.02-2.51.15-13.24,3-16.04,16.38-16.05,5.57,0,11.15.06,16.72.05,13.92-.04,17,3.14,16.61,18.3-2.41.26-4.96.54-8.02.88-.51-3.29-.92-5.93-1.43-9.19h-29.77v17.64c3.96.19,7.75.46,11.55.54,5.57.1,11.16-.11,16.72.13,8.49.37,12.25,4.05,12.56,12.31.2,5.28,0,10.59-.09,15.88-.1,5.49-2.84,9.47-8.28,9.77-11.92.65-23.93,1.33-35.79.49-8.27-.58-10.9-7.26-9.26-19.69Z"/>
        <path class="cls-1" d="m168.57,47.55h9.13c.4,3.5.76,6.67,1.17,10.26h29.92v-18.57c-12.55-3.28-25.81,1.89-38.3-3.87-4.91-9.11-3.82-18.87-1.74-28.24.59-2.65,5.57-5.84,8.77-6.11,9.95-.86,20.05-.99,30.02-.36,8.23.52,11.57,6.74,10.63,18.29-2.46.17-5.05.34-7.87.54-.87-3.34-1.62-6.19-2.4-9.18h-29.87v18.22c5.47,0,10.62,0,15.77,0,4.73.01,9.49-.2,14.2.12,7.41.51,10.69,3.52,11.13,10.88.44,7.18.09,14.41.09,20.44-3.62,6.46-8.6,7.78-14.12,7.88-6.96.13-13.93.25-20.89.2-14.35-.11-18.5-5.47-15.65-20.49Z"/>
        <path class="cls-1" d="m229.88.61c13.79,0,27.13-.45,40.41.17,7.76.36,10.48,4.08,10.85,12.15.27,5.84.3,11.71.1,17.56-.25,7.12-3.65,10.59-10.99,10.8-9.4.27-18.8.07-29.1.07v26.06c-4.05.19-7.22.34-11.27.52V.61Zm39.25,9.61h-27.73v23.18c9.75-2.17,19.03,1.75,27.73-3.23V10.22Z"/>
        <path class="cls-1" d="m418.88.76h57.34c.22,2.78.41,5.18.68,8.62h-23.08c-1.17,19.84.95,38.89-.37,58.18h-11.41V10.14h-22.44c-.26-3.32-.46-5.93-.72-9.37Z"/>
      </g>
      <g>
        <path class="cls-1" d="m9.78,27.49c-2.72,4.1-5.45,8.2-8.18,12.3l.46.76h15.32L0,67.8h17.38l16.42-27.28h14.33c2.91-4.38,5.69-8.55,8.65-13.02H9.78Z"/>
        <path class="cls-1" d="m105.39,0c-6.12,9.54-11.82,18.41-17.6,27.41h-29.29c4.35,9.12,8.48,17.81,12.63,26.52-2.33.87-20.33,1.09-33.08.76l-7.69,13.11h46.79c2.71-4.26,5.49-8.65,8.33-13.13-2.25-4.84-4.42-9.52-6.85-14.76,6.18-.22,11.58-.42,16.74-.6,3.26-4.8,6.3-9.26,9.82-14.43,7.36,11.88,14.26,23.01,21.1,34.04.87.12,1.57.22,2.46.35-.42.85-.69,1.4-1.07,2.16,1.42,2.18,2.86,4.39,4.1,6.3h14.15C132.35,45.03,119.02,22.76,105.39,0Z"/>
        <path class="cls-1" d="m27.61,0h60.79c-2.88,4.52-5.54,8.7-8.24,12.93H19.33c2.85-4.44,5.49-8.56,8.29-12.93Z"/>
      </g>
    </g>
  </g>
</svg>