<?xml version="1.0" encoding="UTF-8"?>
<svg id="Layer_2" data-name="Layer 2" xmlns="http://www.w3.org/2000/svg" viewBox="0 0 274.22 88.69">
  <defs>
    <style>
      .cls-1 {
        fill: #231f20;
        stroke-width: 0px;
      }
    </style>
  </defs>
  <g id="Layer_1-2" data-name="Layer 1">
    <g>
      <polygon class="cls-1" points="34.99 33.59 37.76 20.55 79.27 20.55 83.64 0 18.8 0 0 88.69 23.32 88.69 30.68 53.97 67.03 53.97 71.33 33.59 34.99 33.59"/>
      <polygon class="cls-1" points="105.26 33.59 108.04 20.55 149.55 20.55 153.91 0 89.07 0 70.28 88.69 93.6 88.69 100.96 53.97 137.31 53.97 141.61 33.59 105.26 33.59"/>
      <path class="cls-1" d="m205.7,52.64h-9.21L207.34,1.74h-23.1l-41.81,51.1-3.9,18.32h32.25l-3.71,17.53h21.81l3.71-17.53h9.21l3.91-18.53Zm-42.77,0l16.07-20.28-4.31,20.28h-11.76Z"/>
      <path class="cls-1" d="m249.41,58.98c6.49-3.99,11.22-7.54,14.45-10.85,4.95-5.07,8.17-10.98,9.55-17.53,1.88-8.79.45-16.04-4.25-21.54-4.66-5.45-11.83-8.21-21.32-8.21-11.85,0-21.19,4.51-27.75,13.41-3.37,4.57-5.99,10.58-7.8,17.85l-.93,3.72h21.75l.56-2.28c1.03-4.19,2.18-7.21,3.42-9,2-2.84,4.75-4.17,8.66-4.17,3.29,0,4.39,1.15,4.92,2.01,1,1.61,1.21,3.69.62,6.39-.76,3.56-2.95,6.94-6.49,10.03-2.53,2.17-8.04,5.9-16.37,11.07-10.23,6.35-17.01,12.28-20.75,18.13-3.55,5.11-6.1,10.82-7.56,16.98l-.88,3.69h62.01l4.24-20.1h-31.41c1.82-1.23,4.48-2.92,7.94-5.07l7.35-4.55Z"/>
    </g>
  </g>
</svg>