<svg width="53" height="308" viewBox="0 0 53 308" fill="none" xmlns="http://www.w3.org/2000/svg">
<rect x="0.430664" y="0.199997" width="52.3385" height="307.8" fill="black"/>
<path d="M36.543 171.057C37.1777 172.089 37.4951 173.359 37.4951 174.865C37.4951 177.345 36.6361 179.376 34.918 180.959C33.1914 182.609 30.8301 183.435 27.834 183.435C24.804 183.435 22.375 182.601 20.5469 180.934C18.7187 179.266 17.8047 177.062 17.8047 174.319C17.8047 171.941 18.4098 170.033 19.6201 168.594C20.8219 167.146 22.3242 166.317 24.1269 166.105L24.1269 169.952C22.849 170.248 21.956 170.972 21.4482 172.123C21.1689 172.766 21.0293 173.481 21.0293 174.269C21.0293 175.775 21.6006 177.015 22.7432 177.988C23.8773 178.953 25.5869 179.436 27.8721 179.436C30.1741 179.436 31.8034 178.911 32.7598 177.861C33.7161 176.812 34.1943 175.618 34.1943 174.281C34.1943 172.969 33.8177 171.895 33.0644 171.057C32.3027 170.219 31.3083 169.702 30.081 169.508L30.081 173.837L26.958 173.837L26.958 166.042L37 166.042L37 168.632L34.6641 169.025C35.5527 169.779 36.179 170.456 36.543 171.057ZM37.5205 154.02C37.5205 156.694 36.7926 158.738 35.3369 160.151C33.5511 162.047 30.9782 162.995 27.6182 162.995C24.1904 162.995 21.6175 162.047 19.8994 160.151C18.4437 158.738 17.7158 156.694 17.7158 154.02C17.7158 151.345 18.4437 149.301 19.8994 147.888C21.6175 146 24.1904 145.057 27.6182 145.057C30.9782 145.057 33.5511 146 35.3369 147.888C36.7926 149.301 37.5205 151.345 37.5205 154.02ZM32.4932 150.325C31.3506 149.42 29.7256 148.967 27.6182 148.967C25.5192 148.967 23.8984 149.424 22.7559 150.338C21.6048 151.243 21.0293 152.471 21.0293 154.02C21.0293 155.568 21.6006 156.804 22.7432 157.727C23.8857 158.649 25.5107 159.11 27.6182 159.11C29.7256 159.11 31.3506 158.649 32.4932 157.727C33.6357 156.804 34.207 155.568 34.207 154.02C34.207 152.471 33.6357 151.239 32.4932 150.325ZM18.2871 142.061L18.2871 138.15L33.6357 138.15L33.6357 128.883L37 128.883L37 142.061L18.2871 142.061ZM37 118.104L37 126.166L18.2871 126.166L18.2871 118.104C18.304 116.945 18.4394 115.98 18.6934 115.21C19.125 113.898 19.9163 112.836 21.0674 112.023C21.9984 111.372 23.0055 110.927 24.0889 110.69C25.1722 110.453 26.2047 110.335 27.1865 110.335C29.6748 110.335 31.7822 110.834 33.5088 111.833C35.8363 113.187 37 115.278 37 118.104ZM23.0605 115.197C22.0449 115.798 21.5371 116.987 21.5371 118.765L21.5371 122.37L33.75 122.37L33.75 118.765C33.75 116.92 32.8402 115.633 31.0205 114.905C30.0218 114.507 28.8327 114.309 27.4531 114.309C25.5488 114.309 24.0846 114.605 23.0605 115.197ZM30.2715 92.1934L30.2715 96.167L37 96.167L37 100.052L18.2871 100.052L18.2871 91.9014C18.2871 90.0225 18.7695 88.5244 19.7344 87.4072C20.6992 86.29 22.193 85.7314 24.2158 85.7314C26.4248 85.7314 27.9863 86.29 28.9004 87.4072C29.8144 88.5244 30.2715 90.1198 30.2715 92.1934ZM26.374 90.3652C25.9254 89.8574 25.2145 89.6035 24.2412 89.6035C23.2679 89.6035 22.5739 89.8617 22.1592 90.3779C21.7445 90.8857 21.5371 91.6009 21.5371 92.5234L21.5371 96.167L27.0469 96.167L27.0469 92.5234C27.0469 91.6009 26.8226 90.8815 26.374 90.3652ZM33.1533 73.7725L33.1533 80.666L37 81.9609L37 86.0488L18.2871 79.3711L18.2871 74.9531L37 68.3262L37 72.5664L33.1533 73.7725ZM29.9287 74.8643L22.5654 77.2002L29.9287 79.6123L29.9287 74.8643ZM35.6035 52.7363C36.8815 54.1328 37.5205 55.9186 37.5205 58.0937C37.5205 60.7852 36.6572 62.901 34.9307 64.4414C33.1956 65.9818 30.8174 66.752 27.7959 66.752C24.529 66.752 22.0111 65.876 20.2422 64.124C18.7018 62.6006 17.9316 60.6624 17.9316 58.3096C17.9316 55.1611 18.9642 52.859 21.0293 51.4033C22.1888 50.5993 23.3525 50.1676 24.5205 50.1084L24.5205 54.0186C23.6234 54.2725 22.9463 54.5983 22.4892 54.9961C21.6767 55.707 21.2705 56.7607 21.2705 58.1572C21.2705 59.5791 21.846 60.7005 22.9971 61.5215C24.1396 62.3424 25.7604 62.7529 27.8594 62.7529C29.9583 62.7529 31.5325 62.3213 32.582 61.458C33.623 60.5863 34.1435 59.4818 34.1435 58.1445C34.1435 56.7734 33.695 55.7282 32.7978 55.0088C32.3154 54.611 31.5918 54.2809 30.6269 54.0186L30.6269 50.1465C32.6667 50.485 34.3255 51.3483 35.6035 52.7363ZM37 30.5703L37 35.5977L28.8242 41.374L30.7412 43.2402L37 43.2402L37 47.0869L18.2871 47.0869L18.2871 43.2402L25.9932 43.2402L18.2871 36.0166L18.2871 30.9639L25.9932 38.6318L37 30.5703ZM34.2959 21.5693C34.2959 20.6468 34.1943 19.8978 33.9912 19.3223C33.6019 18.2305 32.8782 17.6846 31.8203 17.6846C31.2025 17.6846 30.7243 17.9554 30.3857 18.4971C30.0557 19.0387 29.7637 19.8893 29.5098 21.0488L29.0654 23.0293C28.6253 24.9759 28.1471 26.3216 27.6308 27.0664C26.7676 28.3275 25.4176 28.958 23.581 28.958C21.9053 28.958 20.513 28.3486 19.4043 27.1299C18.2956 25.9111 17.7412 24.1211 17.7412 21.7598C17.7412 19.7878 18.2659 18.1077 19.3154 16.7197C20.3564 15.3232 21.8714 14.5911 23.8603 14.5234L23.8603 18.2812C22.7347 18.349 21.9349 18.8398 21.4609 19.7539C21.1478 20.3633 20.9912 21.1208 20.9912 22.0264C20.9912 23.0335 21.1943 23.8376 21.6006 24.4385C22.0068 25.0394 22.5739 25.3398 23.3017 25.3398C23.9704 25.3398 24.4697 25.0436 24.7998 24.4512C25.0198 24.0703 25.278 23.2578 25.5742 22.0137L26.3486 18.7891C26.6872 17.3757 27.14 16.3092 27.707 15.5898C28.5872 14.4727 29.861 13.9141 31.5283 13.9141C33.2379 13.9141 34.6598 14.57 35.7939 15.8818C36.9196 17.1852 37.4824 19.0303 37.4824 21.417C37.4824 23.8545 36.928 25.7715 35.8193 27.168C34.7021 28.5645 33.1702 29.2627 31.2236 29.2627L31.2236 25.5303C32.0784 25.4118 32.7174 25.179 33.1406 24.832C33.9108 24.1973 34.2959 23.1097 34.2959 21.5693Z" fill="white"/>
</svg>
