<svg width="65" height="63" viewBox="0 0 65 63" fill="none" xmlns="http://www.w3.org/2000/svg">
<path d="M32.0833 40.6932C30.661 40.6932 29.2219 40.6932 27.7997 40.6932C26.5448 40.6932 25.6914 40.141 25.2898 38.9195C24.4365 36.2424 23.5498 33.5652 22.7299 30.888C22.228 29.2482 22.6128 27.7758 23.9514 26.6882C25.8923 25.0986 27.8501 23.5592 29.8579 22.0533C31.0125 21.2 32.2673 21.1665 33.4887 22.0198C35.7476 23.5927 38.0233 25.1488 40.2654 26.7384C41.8216 27.8427 42.0223 28.7128 41.4366 30.5032C40.6502 32.9126 39.8973 35.3221 39.2113 37.7483C38.542 40.141 37.6552 40.8103 35.2122 40.7099C34.1748 40.6597 33.1207 40.7099 32.0833 40.7099V40.6932Z" fill="#6D9BCE"/>
<path d="M59.8755 35.6735C59.7417 36.2591 59.6245 36.8448 59.4405 37.4137C58.9385 39.1036 58.3863 40.7936 57.901 42.5003C57.5999 43.5712 57.0143 44.2405 55.91 44.5584C53.7515 45.1775 51.6266 45.8635 49.5015 46.583C47.8952 47.1184 46.5565 46.7002 45.4187 45.5791C44.2642 44.4413 43.7456 43.0692 44.2308 41.4294C44.7328 39.7395 45.218 38.0495 45.7033 36.3428C46.3224 34.1843 46.9916 32.0425 47.5103 29.8506C47.8617 28.3614 48.7318 27.4746 50.1206 26.9726C50.1541 26.9726 50.1874 26.9726 50.2042 26.9392C52.6304 26.0691 52.6973 26.1527 54.3705 28.1272C55.5418 29.4992 56.8637 30.7374 58.1353 32.0258C59.1225 33.0298 59.8254 34.1508 59.8755 35.6567V35.6735Z" fill="#F1972C"/>
<path d="M32.0832 46.1982C34.409 46.1982 36.7182 46.1982 39.044 46.1982C40.8678 46.1982 42.7752 47.7376 42.976 49.5447C43.0597 50.2474 42.7083 51.084 42.3569 51.7365C41.7211 52.8911 40.8677 53.9285 40.2319 55.0998C38.3077 58.5466 35.2625 59.7012 31.5311 59.5339C30.8953 59.5004 30.2595 59.4335 29.6404 59.3499C27.6157 59.0822 26.1767 58.0614 25.156 56.2376C24.1688 54.4472 22.964 52.774 21.776 51.0841C21.1904 50.2474 21.0899 49.4777 21.709 48.6578C22.0269 48.2228 22.3115 47.771 22.6461 47.3527C23.282 46.5663 24.1018 46.1814 25.1392 46.1982C27.4483 46.2316 29.7742 46.1982 32.1 46.1982H32.0832Z" fill="#E42F2E"/>
<path d="M4.17339 36.2424C4.44111 35.6902 4.70882 34.8369 5.21079 34.1508C6.48245 32.4107 8.07202 30.8713 9.17636 29.0475C10.7325 26.4874 15.1833 27.6587 15.9196 30.0849C16.5554 32.143 17.2749 34.1676 17.9776 36.1922C18.5967 37.9491 19.2158 39.706 19.8851 41.4462C20.6548 43.4541 20.1695 45.1608 18.7975 46.7169C18.1449 47.4531 17.3251 47.7041 16.3881 47.5368C14.8655 47.269 13.3429 46.9679 11.8202 46.6834C9.26015 46.1982 7.40283 44.7592 6.1479 42.5003C5.12723 40.6431 4.57493 38.6519 4.13989 36.2424H4.17339Z" fill="#72B544"/>
<path d="M33.2712 13.5867C33.3047 11.4282 34.292 10.0562 36.0824 9.38688C36.8855 9.0857 37.6552 8.73431 38.4082 8.33273C41.3531 6.75989 44.2476 6.79336 47.0252 8.65065C48.2801 9.48727 49.4516 10.4745 50.5559 11.5119C51.6435 12.5326 51.9781 13.8042 51.6769 15.3269C51.4928 16.2304 51.727 17.2176 51.6266 18.1546C51.4928 19.4765 51.2585 20.7816 51.0075 22.0868C50.6896 23.76 48.1464 24.7974 46.3226 24.011C46.0047 23.8771 45.7034 23.6931 45.419 23.4923C41.8215 21.0661 38.2241 18.6399 34.6267 16.2304C33.5893 15.5277 33.3215 14.507 33.288 13.5867H33.2712Z" fill="#F1972C"/>
<path d="M29.59 13.1517C29.9079 14.942 29.0211 16.0798 27.716 17.0503C24.6205 19.3259 21.5417 21.6015 18.4629 23.8772C16.9737 24.9815 14.1793 25.0484 12.7571 23.8772C12.4057 23.5927 12.1714 23.0405 12.1213 22.572C11.8201 20.2295 11.6862 17.8535 11.3181 15.5277C11.0169 13.6034 11.8537 12.3652 13.3094 11.3613C13.6106 11.1438 13.9283 10.9263 14.1793 10.6418C16.7059 7.91444 19.7848 7.19496 23.2818 8.19891C24.6706 8.60048 26.0258 9.16934 27.3644 9.72151C28.8871 10.3406 30.0417 11.2442 29.5732 13.1349L29.59 13.1517Z" fill="#72B544"/>
<path d="M32.5852 0.0167525C35.3962 -0.0167122 38.1404 0.384867 40.8343 1.22149C41.1857 1.33861 41.5705 1.47249 41.855 1.70674C42.5577 2.25891 42.4406 3.21262 41.6375 3.54726C38.4416 4.81893 35.2289 6.05714 32.0163 7.27861C31.7151 7.39573 31.3303 7.36227 30.9957 7.27861C27.5655 6.57585 24.3864 5.12012 21.2073 3.7146C20.9228 3.58074 20.5212 3.14573 20.5714 2.91148C20.6384 2.57683 20.9729 2.19198 21.3076 2.02466C23.2987 0.987252 25.4071 0.368123 27.6492 0.267728C29.289 0.200799 30.9454 0.0836658 32.5852 3.8147e-06V0.0167525Z" fill="#6D9BCE"/>
<path d="M23.2822 62.4118C22.8304 62.2445 22.3284 62.0604 21.8264 61.8764C15.6857 59.651 10.6827 55.8193 6.34898 51.0171C6.08126 50.7159 5.88039 50.2474 5.84692 49.8291C5.74653 48.9088 6.18157 48.5909 7.10185 48.8084C10.0802 49.5279 13.042 50.2641 16.0371 50.9334C17.0912 51.1677 17.8608 51.7031 18.4632 52.5899C20.2536 55.2336 22.0774 57.8607 23.8845 60.4877C24.0518 60.7219 24.2191 60.9562 24.3028 61.2239C24.5203 61.843 24.0016 62.4621 23.2822 62.3784V62.4118Z" fill="#E42F2E"/>
<path d="M40.533 62.2613C42.3233 58.4798 44.2142 54.9659 46.7408 51.8369C47.2763 51.1676 48.1965 50.6992 49.0331 50.4315C51.8944 49.5614 54.8057 48.8084 57.7172 48.022C57.9849 47.9551 58.2861 47.8882 58.5538 47.9216C59.29 48.0053 59.5912 48.6244 59.1561 49.21C54.4376 55.5516 48.4808 60.153 40.533 62.2445V62.2613Z" fill="#E42F2E"/>
<path d="M63.8746 32.6951C62.6699 31.574 61.5655 30.6705 60.6117 29.6331C58.9385 27.8093 57.3658 25.9017 55.7427 24.0444C55.04 23.2413 54.8894 22.388 55.1236 21.3171C55.4081 20.0287 55.475 18.6901 55.5419 17.3515C55.6089 15.9627 55.5084 14.5572 55.6255 13.1684C55.659 12.7668 56.1443 12.2648 56.5458 12.0808C56.7634 11.9804 57.3992 12.3485 57.5832 12.6664C59.2063 15.3101 60.9631 17.8869 62.3017 20.6645C64.0753 24.3289 64.477 28.3112 63.8914 32.6951H63.8746Z" fill="#F1972C"/>
<path d="M8.07229 19.5769C8.15595 20.4637 8.2229 21.3338 8.30656 22.2206C8.50735 24.2452 7.60378 25.8181 6.39905 27.324C4.97679 29.0976 3.62144 30.9382 2.18245 32.6783C1.86454 33.0465 1.26205 33.4146 0.81028 33.3979C0.157717 33.3644 0.12435 32.762 0.0741527 32.1262C-0.411087 25.6675 1.51307 19.9115 5.02688 14.6074C5.36152 14.0887 5.79658 13.5867 6.29855 13.2521C6.80053 12.9174 7.43634 13.0345 7.53674 13.754C7.82119 15.695 8.02206 17.6359 8.25632 19.5769C8.18939 19.5769 8.13922 19.5769 8.07229 19.5937V19.5769Z" fill="#72B544"/>
</svg>
