<svg width="53" height="308" viewBox="0 0 53 308" fill="none" xmlns="http://www.w3.org/2000/svg">
<rect x="0.215576" y="0.199997" width="52.3385" height="307.8" fill="black"/>
<path d="M34.2959 192.601C34.2959 191.678 34.1943 190.929 33.9912 190.354C33.6019 189.262 32.8783 188.716 31.8203 188.716C31.2025 188.716 30.7243 188.987 30.3857 189.528C30.0557 190.07 29.7637 190.921 29.5098 192.08L29.0654 194.061C28.6253 196.007 28.1471 197.353 27.6309 198.098C26.7676 199.359 25.4176 199.989 23.5811 199.989C21.9053 199.989 20.513 199.38 19.4043 198.161C18.2956 196.942 17.7412 195.152 17.7412 192.791C17.7412 190.819 18.2659 189.139 19.3154 187.751C20.3564 186.354 21.8714 185.622 23.8603 185.555L23.8603 189.312C22.7347 189.38 21.9349 189.871 21.4609 190.785C21.1478 191.395 20.9912 192.152 20.9912 193.058C20.9912 194.065 21.1943 194.869 21.6006 195.47C22.0068 196.071 22.5739 196.371 23.3018 196.371C23.9704 196.371 24.4697 196.075 24.7998 195.482C25.0199 195.102 25.278 194.289 25.5742 193.045L26.3486 189.82C26.6872 188.407 27.14 187.34 27.707 186.621C28.5872 185.504 29.861 184.945 31.5283 184.945C33.238 184.945 34.6598 185.601 35.7939 186.913C36.9196 188.216 37.4824 190.062 37.4824 192.448C37.4824 194.886 36.9281 196.803 35.8193 198.199C34.7021 199.596 33.1702 200.294 31.2236 200.294L31.2236 196.562C32.0784 196.443 32.7174 196.21 33.1406 195.863C33.9108 195.229 34.2959 194.141 34.2959 192.601ZM18.2871 182.355L18.2871 178.471L37 178.471L37 182.355L18.2871 182.355ZM18.2871 174.814L18.2871 170.904L33.6357 170.904L33.6357 161.637L37 161.637L37 174.814L18.2871 174.814ZM18.2871 162.233L18.2871 158.057L32.4932 153.994L18.2871 149.894L18.2871 145.831L37 152.217L37 155.911L18.2871 162.233ZM28.8242 130.482L28.8242 139.572L33.6357 139.572L33.6357 129.213L37 129.213L37 143.394L18.2871 143.394L18.2871 129.67L21.6006 129.67L21.6006 139.572L25.5742 139.572L25.5742 130.482L28.8242 130.482ZM29.6621 118.219L29.6621 122.256L37 122.256L37 126.077L18.2871 126.077L18.2871 116.898C18.3125 115.587 18.4733 114.579 18.7695 113.877C19.0657 113.166 19.5016 112.565 20.0771 112.074C20.5511 111.668 21.0758 111.346 21.6514 111.109C22.2269 110.872 22.8828 110.754 23.6191 110.754C24.5078 110.754 25.3838 110.978 26.2471 111.427C27.1019 111.875 27.707 112.616 28.0625 113.648C28.4095 112.785 28.9046 112.176 29.5478 111.82C30.1826 111.456 31.1559 111.274 32.4678 111.274L33.7246 111.274C34.5794 111.274 35.1592 111.241 35.4639 111.173C35.9463 111.071 36.3017 110.834 36.5303 110.462L37 110.462L37 114.766C36.5853 114.884 36.251 114.969 35.9971 115.02C35.4723 115.121 34.9349 115.176 34.3848 115.185L32.6455 115.21C31.4521 115.227 30.6566 115.447 30.2588 115.87C29.861 116.285 29.6621 117.068 29.6621 118.219ZM26.2598 115.845C25.9043 115.066 25.2018 114.677 24.1523 114.677C23.0182 114.677 22.2565 115.053 21.8672 115.807C21.6471 116.23 21.5371 116.865 21.5371 117.711L21.5371 122.256L26.5644 122.256L26.5644 117.825C26.5644 116.945 26.4629 116.285 26.2598 115.845ZM30.2715 92.1934L30.2715 96.167L37 96.167L37 100.052L18.2871 100.052L18.2871 91.9014C18.2871 90.0225 18.7695 88.5244 19.7344 87.4072C20.6992 86.29 22.193 85.7314 24.2158 85.7314C26.4248 85.7314 27.9863 86.29 28.9004 87.4072C29.8144 88.5244 30.2715 90.1198 30.2715 92.1934ZM26.374 90.3652C25.9254 89.8574 25.2145 89.6035 24.2412 89.6035C23.2679 89.6035 22.5739 89.8617 22.1592 90.3779C21.7445 90.8857 21.5371 91.6009 21.5371 92.5234L21.5371 96.167L27.0469 96.167L27.0469 92.5234C27.0469 91.6009 26.8226 90.8815 26.374 90.3652ZM33.1533 73.7725L33.1533 80.666L37 81.9609L37 86.0488L18.2871 79.3711L18.2871 74.9531L37 68.3262L37 72.5664L33.1533 73.7725ZM29.9287 74.8643L22.5654 77.2002L29.9287 79.6123L29.9287 74.8643ZM35.6035 52.7363C36.8815 54.1328 37.5205 55.9186 37.5205 58.0937C37.5205 60.7852 36.6572 62.901 34.9307 64.4414C33.1956 65.9818 30.8174 66.752 27.7959 66.752C24.529 66.752 22.0111 65.876 20.2422 64.124C18.7018 62.6006 17.9316 60.6624 17.9316 58.3096C17.9316 55.1611 18.9642 52.859 21.0293 51.4033C22.1888 50.5993 23.3525 50.1676 24.5205 50.1084L24.5205 54.0186C23.6234 54.2725 22.9463 54.5983 22.4892 54.9961C21.6767 55.707 21.2705 56.7607 21.2705 58.1572C21.2705 59.5791 21.846 60.7005 22.9971 61.5215C24.1396 62.3424 25.7604 62.7529 27.8594 62.7529C29.9583 62.7529 31.5325 62.3213 32.582 61.458C33.623 60.5863 34.1435 59.4818 34.1435 58.1445C34.1435 56.7734 33.695 55.7282 32.7978 55.0088C32.3154 54.611 31.5918 54.2809 30.6269 54.0186L30.6269 50.1465C32.6667 50.485 34.3255 51.3483 35.6035 52.7363ZM37 30.5703L37 35.5977L28.8242 41.374L30.7412 43.2402L37 43.2402L37 47.0869L18.2871 47.0869L18.2871 43.2402L25.9932 43.2402L18.2871 36.0166L18.2871 30.9639L25.9932 38.6318L37 30.5703ZM34.2959 21.5693C34.2959 20.6468 34.1943 19.8978 33.9912 19.3223C33.6019 18.2305 32.8782 17.6846 31.8203 17.6846C31.2025 17.6846 30.7243 17.9554 30.3857 18.4971C30.0557 19.0387 29.7637 19.8893 29.5098 21.0488L29.0654 23.0293C28.6253 24.9759 28.1471 26.3216 27.6308 27.0664C26.7676 28.3275 25.4176 28.958 23.581 28.958C21.9053 28.958 20.513 28.3486 19.4043 27.1299C18.2956 25.9111 17.7412 24.1211 17.7412 21.7598C17.7412 19.7878 18.2659 18.1077 19.3154 16.7197C20.3564 15.3232 21.8714 14.5911 23.8603 14.5234L23.8603 18.2812C22.7347 18.349 21.9349 18.8398 21.4609 19.7539C21.1478 20.3633 20.9912 21.1208 20.9912 22.0264C20.9912 23.0335 21.1943 23.8376 21.6006 24.4385C22.0068 25.0394 22.5739 25.3398 23.3017 25.3398C23.9704 25.3398 24.4697 25.0436 24.7998 24.4512C25.0198 24.0703 25.278 23.2578 25.5742 22.0137L26.3486 18.7891C26.6872 17.3757 27.14 16.3092 27.707 15.5898C28.5872 14.4727 29.861 13.9141 31.5283 13.9141C33.2379 13.9141 34.6598 14.57 35.7939 15.8818C36.9196 17.1852 37.4824 19.0303 37.4824 21.417C37.4824 23.8545 36.928 25.7715 35.8193 27.168C34.7021 28.5645 33.1702 29.2627 31.2236 29.2627L31.2236 25.5303C32.0784 25.4118 32.7174 25.179 33.1406 24.832C33.9108 24.1973 34.2959 23.1097 34.2959 21.5693Z" fill="white"/>
</svg>
