<svg width="240" height="332" viewBox="0 0 240 332" fill="none" xmlns="http://www.w3.org/2000/svg">
<g filter="url(#filter0_d_10_1082)">
<rect x="4" width="231.785" height="324" fill="url(#paint0_linear_10_1082)"/>
<rect x="12.7231" y="29.9077" width="214.338" height="264.185" fill="url(#paint1_linear_10_1082)"/>
<rect x="13.2231" y="30.4077" width="213.338" height="263.185" stroke="url(#paint2_linear_10_1082)" stroke-opacity="0.3"/>
<path d="M72.5408 281.693C71.5018 280.736 70.4463 279.772 69.2176 278.65C68.962 279.763 69.1847 280.695 69.0362 281.668H67.8735V274.222C69.4155 274.222 70.974 274.164 72.5161 274.247C73.3077 274.288 73.5798 274.692 73.6128 275.508C73.6458 276.16 73.6293 276.819 73.6128 277.479C73.588 278.403 73.2994 278.708 72.3841 278.782C72.079 278.807 71.7657 278.815 71.2214 278.84C72.2604 279.961 73.3654 280.728 74.4291 281.701H72.5161L72.5408 281.693ZM69.1104 275.286V277.677H72.2604V275.286H69.1104Z" fill="#B9B9B9" fill-opacity="0.8"/>
<path d="M60.2867 274.379C60.8226 274.288 61.1855 274.181 61.5483 274.172C62.7027 274.148 63.8572 274.148 65.0199 274.172C66.0754 274.197 66.4464 274.552 66.4877 275.574C66.5454 277.042 66.5866 278.51 66.5784 279.978C66.5784 281.272 66.2073 281.66 64.9127 281.718C63.7912 281.767 62.6615 281.775 61.5401 281.718C60.3856 281.66 59.998 281.223 59.9733 280.06C59.9486 278.625 59.9238 277.182 59.9568 275.747C59.9651 275.302 60.163 274.865 60.2867 274.37V274.379ZM65.2673 280.613V275.286H61.2927V280.613H65.2673Z" fill="#B9B9B9" fill-opacity="0.8"/>
<path d="M81.4791 279.45H82.5181C82.5758 279.821 82.6336 280.175 82.6995 280.604H86.3031V278.403C85.4702 278.403 84.6703 278.403 83.8705 278.403C81.9491 278.403 81.7183 278.172 81.71 276.242C81.71 276.151 81.71 276.052 81.71 275.962C81.7265 274.477 82.0481 274.164 83.5489 274.156C84.1756 274.156 84.8023 274.156 85.429 274.156C86.9957 274.156 87.3338 274.51 87.2926 276.209C87.0205 276.242 86.7318 276.267 86.3938 276.308C86.336 275.937 86.2866 275.64 86.2371 275.277H82.8974V277.256C83.3427 277.281 83.7715 277.306 84.1921 277.314C84.8188 277.322 85.4455 277.298 86.0722 277.331C87.0287 277.372 87.4492 277.784 87.4822 278.716C87.507 279.31 87.4822 279.903 87.474 280.497C87.4657 281.116 87.1524 281.561 86.5422 281.594C85.2063 281.668 83.854 281.742 82.5264 281.652C81.5946 281.586 81.306 280.835 81.4874 279.442L81.4791 279.45Z" fill="#B9B9B9" fill-opacity="0.8"/>
<path d="M46.2932 279.467H47.3158C47.357 279.863 47.3982 280.217 47.4477 280.621H50.8038V278.535C49.3938 278.164 47.9095 278.749 46.5076 278.098C45.9552 277.075 46.0788 275.979 46.3097 274.931C46.3757 274.635 46.9364 274.28 47.291 274.247C48.4042 274.148 49.5422 274.14 50.6636 274.206C51.5872 274.263 51.9665 274.964 51.8593 276.259C51.5872 276.275 51.2903 276.3 50.977 276.317C50.878 275.946 50.7956 275.624 50.7049 275.286H47.3487V277.331C47.9672 277.331 48.5444 277.331 49.1216 277.331C49.6494 277.331 50.1854 277.306 50.7131 277.347C51.546 277.405 51.9088 277.743 51.9665 278.568C52.016 279.376 51.9748 280.184 51.9748 280.86C51.5707 281.586 51.01 281.734 50.3915 281.743C49.6082 281.759 48.8248 281.767 48.0497 281.767C46.4417 281.751 45.9716 281.157 46.2932 279.467Z" fill="#B9B9B9" fill-opacity="0.8"/>
<path d="M53.1704 274.197C54.7207 274.197 56.2132 274.148 57.7057 274.214C58.5798 274.255 58.8849 274.675 58.9261 275.574C58.9591 276.234 58.9591 276.885 58.9344 277.545C58.9097 278.345 58.5221 278.732 57.6975 278.757C56.642 278.79 55.5865 278.757 54.4321 278.757V281.685C53.9785 281.709 53.6239 281.726 53.1704 281.742V274.181V274.197ZM57.5738 275.277H54.465V277.883C55.5618 277.636 56.6008 278.081 57.5738 277.52V275.277Z" fill="#B9B9B9" fill-opacity="0.8"/>
<path d="M74.3877 274.214H80.8278C80.8526 274.527 80.8773 274.799 80.9021 275.178H78.3128C78.1809 277.405 78.42 279.549 78.2716 281.709H76.9934V275.261H74.4784C74.4537 274.89 74.4289 274.593 74.3959 274.205L74.3877 274.214Z" fill="#B9B9B9" fill-opacity="0.8"/>
<path d="M28.7397 277.38C28.443 277.826 28.1463 278.27 27.8495 278.716L27.9006 278.799H29.5661L27.6772 281.76H29.5661L31.3496 278.793H32.9067C33.2225 278.318 33.5256 277.861 33.8479 277.376H28.7397V277.38Z" fill="#B9B9B9" fill-opacity="0.8"/>
<path d="M39.1347 274.393C38.4679 275.43 37.8489 276.394 37.2203 277.373H34.0361C34.5083 278.366 34.9582 279.31 35.4113 280.258C35.1592 280.35 33.2002 280.376 31.8154 280.341L30.9795 281.767H36.0685C36.3621 281.304 36.6652 280.825 36.9747 280.337C36.729 279.811 36.4929 279.3 36.2281 278.732C36.8981 278.707 37.4883 278.688 38.0499 278.665C38.4041 278.142 38.7359 277.657 39.1156 277.096C39.9164 278.388 42.0063 281.754 42.0063 281.754H43.5441C42.0669 279.288 40.6152 276.866 39.1347 274.39V274.393Z" fill="#B9B9B9" fill-opacity="0.8"/>
<path d="M30.6795 274.39H37.2905C36.9778 274.881 36.6875 275.334 36.3939 275.797H29.7798C30.0893 275.315 30.3764 274.865 30.6795 274.39Z" fill="#B9B9B9" fill-opacity="0.8"/>
<mask id="mask0_10_1082" style="mask-type:alpha" maskUnits="userSpaceOnUse" x="12" y="29" width="216" height="266">
<rect x="12.7231" y="29.9077" width="214.338" height="264.185" fill="url(#paint3_linear_10_1082)"/>
<rect x="13.2231" y="30.4077" width="213.338" height="263.185" stroke="url(#paint4_linear_10_1082)" stroke-opacity="0.3"/>
</mask>
<g mask="url(#mask0_10_1082)">
<path d="M236.113 112.017C235.707 114.49 235.256 116.957 234.916 119.439C234.766 120.539 234.132 121.019 233.21 121.416C230.549 122.562 227.85 123.505 224.956 123.925C223.308 124.165 221.638 124.586 220.106 125.23C215.57 127.14 211.02 128.947 206.13 129.76C205.304 129.898 204.932 130.425 205.412 131.419C206.237 133.128 206.148 135.287 207.967 136.524C208.037 136.572 207.803 137.328 207.702 137.33C206.157 137.362 204.506 138.756 203.084 137.031C199.169 135.646 195.189 134.493 191.123 133.632C189.501 133.289 187.852 132.977 186.302 132.413C182.99 131.206 179.913 132.332 176.785 133.126C176.696 133.148 176.601 133.193 176.538 133.256C176.342 133.451 175.987 133.675 176.002 133.862C176.115 135.23 176.207 136.617 176.542 137.938C176.616 138.231 177.636 138.435 178.21 138.414C178.929 138.387 179.663 138.148 180.349 137.89C185.653 135.894 190.927 136.692 196.2 138.016C196.377 138.061 196.547 138.161 196.703 138.263C197.428 138.74 198.71 138.033 199.035 139.36C198.178 139.659 197.343 140.083 196.462 140.231C194.668 140.533 192.96 141.27 190.987 140.488C190.035 140.111 188.491 140.5 187.528 141.071C186.351 141.768 185.117 141.883 183.918 142.286C183.049 142.577 181.487 142.318 181.538 144.031C181.54 144.128 181.255 144.248 181.092 144.333C178.623 145.616 177.557 147.779 177.115 150.419C176.983 151.208 176.546 152.01 176.058 152.663C174.848 154.278 174.247 156.128 173.705 158.023C172.432 162.474 171.229 166.948 169.831 171.36C168.658 175.064 167.179 178.654 165.362 182.113C163.383 185.882 161.97 189.908 160.861 194.011C160.361 195.866 160.331 197.85 160.105 199.776C160.062 200.146 160.192 200.558 160.078 200.895C159.156 203.607 160.251 206.136 160.815 208.692C160.992 209.496 161.158 209.874 160.144 209.798C160.009 209.788 159.803 209.991 159.721 210.143C158.817 211.828 157.169 212.492 155.555 213.193C154.775 213.532 154.382 213.81 154.896 214.819C155.989 216.961 155.65 219.118 154.517 221.193C154.254 221.674 153.947 222.231 153.961 222.746C154.043 225.81 152.198 227.916 150.469 230.1C149.149 231.768 147.857 233.458 146.555 235.141C146.384 235.361 146.177 235.575 146.082 235.828C145.154 238.302 143.743 240.149 140.877 240.592C140.107 240.711 139.085 241.34 139.553 242.617C139.603 242.753 139.587 242.991 139.5 243.087C138.14 244.588 136.788 246.099 135.373 247.547C134.966 247.962 134.262 248.094 133.88 248.522C133.563 248.878 133.608 249.536 133.337 249.961C131.181 253.343 128.682 256.457 125.806 259.254C124.719 260.31 123.577 261.189 121.841 260.301C121.339 260.044 120.39 260.397 119.76 260.704C118.183 261.474 116.665 262.366 115.134 263.229C112.49 264.721 109.824 266.177 107.224 267.742C104.378 269.456 102.32 271.964 100.514 274.71C99.7555 275.864 98.8961 276.956 98.0341 278.037C97.4741 278.74 96.3964 279.234 97.4976 280.368C97.6584 280.534 97.3009 281.219 97.161 281.657C96.7996 282.788 96.3376 283.896 96.0801 285.05C95.7684 286.444 96.101 286.708 97.5701 286.97C98.4609 287.13 99.3215 287.491 100.172 287.824C100.6 287.992 100.952 288.456 101.376 288.516C104.012 288.882 105.021 290.781 105.743 292.987C106.539 295.42 106.294 297.713 104.904 299.892C103.314 302.384 101.683 304.855 100.225 307.424C97.9498 311.433 97.3296 315.986 96.2063 320.37C97.3022 323.123 95.0188 324.239 93.6125 325.812C91.5964 328.066 89.072 328.751 86.1227 328.836C82.369 328.944 80.809 325.654 81.3024 322.858C81.9422 319.233 82.7493 315.637 83.4041 312.014C83.6034 310.912 83.3486 309.921 82.6075 308.891C81.2083 306.943 81.5214 306.145 83.6296 304.919C84.0302 304.686 84.4863 304.541 84.864 304.279C85.4535 303.87 86.5272 303.28 86.4599 302.971C86.2743 302.118 85.6175 301.362 85.1052 300.596C85.0451 300.506 84.6615 300.513 84.5281 300.611C83.6361 301.27 82.6179 301.838 81.9239 302.671C78.2682 307.058 73.7486 310.405 69.0688 313.56C65.0106 316.296 60.8164 318.838 56.8503 321.701C54.9767 323.053 53.3207 324.812 51.881 326.635C49.5375 329.602 47.4633 332.781 45.2492 335.851C44.8696 336.378 44.3807 336.832 43.9076 337.284C42.9424 338.206 42.2745 339.238 42.0229 340.608C41.8249 341.689 41.3674 342.743 40.8969 343.748C40.0487 345.562 38.639 346.522 36.5799 346.828C34.1671 347.186 31.8883 347.082 29.5762 346.293C27.6706 345.642 26.3166 344.331 25.6539 342.62C24.9991 340.928 24.1123 339.765 22.5007 338.966C20.7944 338.12 20.5899 337.086 21.6499 335.654C23.8659 332.663 26.1107 329.692 28.9293 327.224C33.0392 323.625 37.0157 319.845 41.9379 317.318C44.4265 316.04 46.1452 313.996 47.4914 311.644C51.864 304.005 56.1549 296.319 60.5262 288.679C61.2157 287.475 62.1548 286.412 62.9899 285.293C63.5448 284.55 64.1996 283.869 64.6714 283.078C65.6098 281.505 66.1333 279.64 68.3657 279.221C68.9924 279.103 69.4688 278.44 68.6284 277.567C66.5868 275.449 66.1653 273.009 67.141 270.125C68.2591 266.82 69.2721 263.429 69.8138 259.993C70.2301 257.352 69.8485 254.585 69.8171 251.873C69.8099 251.248 69.6367 250.583 69.7929 250.004C71.1012 245.143 72.4448 240.291 73.8375 235.453C74.1119 234.499 74.5145 233.527 75.0837 232.724C76.2286 231.109 76.1679 229.181 76.6861 227.408C77.2037 225.635 77.3886 223.743 78.8113 222.345C78.9903 222.169 79.0328 221.809 79.0544 221.528C79.1311 220.539 79.7619 219.383 80.9469 218.06C81.0665 217.926 80.9678 217.582 80.9417 217.339C80.9228 217.162 80.7587 216.9 80.8234 216.831C81.3894 216.231 82.4729 215.668 82.4748 215.09C82.4781 214.134 82.6938 213.546 83.4211 213.05L85.0065 210.241C84.4523 209.23 85.0392 208.321 85.5424 207.647C87.2833 205.317 87.6251 202.331 89.3713 199.966C90.0195 199.088 90.5665 197.489 90.4999 196.439C90.4214 195.194 90.6266 194.055 90.8109 192.911C91.3867 189.331 91.6886 185.727 92.4355 182.15C93.4537 177.273 95.292 172.608 95.9625 167.658C96.0128 167.289 96.4226 166.76 96.7585 166.675C98.3471 166.272 98.5608 164.652 98.4099 163.799C98.0844 161.966 99.0712 161.05 100.065 159.982C100.298 159.731 100.796 159.455 100.76 159.27C100.449 157.659 101.46 156.906 102.58 156.147C102.827 155.98 102.975 155.529 102.999 155.196C103.073 154.21 103.161 153.208 103.068 152.229C102.758 148.971 103.207 145.753 103.433 142.521C103.46 142.147 103.276 141.705 103.063 141.378C101.89 139.578 101.994 139.337 104.108 139.151C104.299 139.134 104.485 139.078 104.674 139.04C104.54 138.936 104.42 138.768 104.272 138.739C101.184 138.137 98.0897 137.57 95.0058 136.95C94.1948 136.787 93.4289 136.386 92.6159 136.245C91.3148 136.018 90.1313 135.175 88.6485 135.746C88.0852 135.963 87.1781 135.586 86.5442 135.257C85.3176 134.619 83.9406 134.224 82.9741 133.107C82.7016 132.793 82.1553 132.583 81.7226 132.561C78.4832 132.398 76.3894 130.043 73.8741 128.504C73.578 128.323 73.1683 127.897 73.2121 127.659C73.4819 126.197 72.2364 125.291 71.9998 124.061C71.8155 123.103 71.7064 122.017 71.9737 121.108C72.6997 118.638 73.6068 116.218 74.5217 113.808C74.8118 113.043 75.3288 112.359 75.7816 111.664C76.3633 110.77 76.1371 110.125 75.3091 109.525C72.4638 107.468 69.6831 105.316 66.7966 103.319C63.0023 100.693 59.1369 98.1692 55.2864 95.6259C54.7492 95.271 54.1421 94.9992 53.535 94.7783C50.4498 93.655 48.6527 91.2312 46.9582 88.5912C45.6636 86.5739 44.0324 84.7749 42.6019 82.8406C41.8811 81.8649 40.8204 82.008 39.8506 81.7493C39.1632 81.5656 38.9782 80.8664 39.8016 80.6678C40.8159 80.4234 40.4107 79.8548 40.1271 79.5516C39.0586 78.4087 37.9117 77.3376 36.7648 76.2712C36.3054 75.8444 35.4081 75.5589 35.3336 75.1067C35.0663 73.4736 33.6868 73.4096 32.6412 73.0606C30.4428 72.3274 28.249 71.8197 27.1066 69.3789C26.7564 68.6307 25.4945 68.3464 24.7495 67.7295C24.3887 67.4315 24.2567 66.8565 24.0215 66.4069C24.4351 66.2501 24.9024 65.8835 25.252 65.9743C26.4342 66.2808 26.8884 65.8861 26.6649 64.7366C26.4205 63.476 26.1349 62.2201 25.7892 60.9843C25.4213 59.6695 25.1442 60.866 24.8024 61.034C24.6044 61.1314 24.3391 61.0915 24.1044 61.1131C24.128 60.4733 24.028 59.7904 24.228 59.2114C24.3279 58.922 25.0259 58.6024 25.3664 58.6795C26.2238 58.8736 26.8296 58.541 27.6066 58.2704C29.9265 57.4634 32.2961 57.93 34.6069 58.6227C34.9186 58.7161 35.2611 58.7076 35.5898 58.7468C35.4637 58.5096 35.3421 58.2698 35.2108 58.0352C33.9077 55.7186 32.4255 53.8281 29.3554 55.4121C29.0587 55.5657 28.5672 55.5526 28.2549 55.4154C27.7922 55.2115 27.4092 54.8273 26.9923 54.5201C27.3994 54.2071 27.766 53.7902 28.2254 53.6124C28.6365 53.4536 29.1508 53.5817 29.6168 53.5438C30.2585 53.4915 30.8976 53.4033 31.5381 53.3301C31.2734 52.7832 30.8963 52.261 30.7669 51.684C30.4644 50.3359 30.2297 48.9675 30.069 47.5952C29.9723 46.7699 29.8965 45.755 30.8506 45.3865C31.9811 44.9499 33.2757 44.714 34.2887 45.6217C35.2552 46.4882 36.0466 47.5501 36.9197 48.5218C37.6451 49.3295 38.3986 50.1124 39.0958 50.943C39.3742 51.2743 39.7409 51.72 39.7141 52.0879C39.5396 54.479 41.506 55.9042 42.2261 57.8803C42.2568 57.9646 42.33 58.0345 42.3882 58.1071C43.0058 58.8775 44.816 58.1208 44.6147 60.191C44.5291 61.0693 46.0531 62.0312 46.6477 63.0689C47.2405 64.1034 47.6777 65.2522 48.0221 66.3991C49.1546 70.1664 51.5909 72.8835 54.7231 75.1067C56.3935 76.2921 58.0128 77.5552 59.6022 78.8485C60.6059 79.6653 61.4209 80.707 62.9082 80.7285C63.2834 80.7338 63.7454 81.1775 64.0074 81.5362C66.2842 84.6579 69.8138 86.0028 72.9801 87.822C76.6913 89.955 80.5424 91.8429 84.3033 93.8915C85.1091 94.3307 85.7659 95.0364 86.5337 95.5566C87.2186 96.0206 87.9166 96.5747 88.6897 96.7734C90.0228 97.1158 91.4252 97.4099 92.7878 97.37C95.0594 97.304 97.0035 98.062 98.6968 99.401C100.387 100.737 102.082 101.272 104.114 100.354C104.357 100.245 104.661 100.258 104.939 100.24C107.775 100.052 110.637 100.232 113.439 100.387C115.721 100.514 117.967 101.856 120.163 102.812C122.117 103.661 123.978 104.724 125.888 105.678C126.027 105.747 126.225 105.699 126.396 105.705C126.352 105.569 126.345 105.403 126.26 105.301C125.189 104.02 124.055 102.789 123.042 101.465C121.976 100.073 121.03 98.5887 120.016 97.1563C119.287 96.1271 118.265 95.2122 117.858 94.0726C117.434 92.8898 117.668 91.4874 117.481 90.2007C117.062 87.311 116.406 84.4462 116.164 81.5447C116.063 80.3371 116.896 79.0811 117.086 77.814C117.492 75.1145 118.325 72.63 119.812 70.3062C120.354 69.4586 121.448 68.6699 120.995 67.3205C120.94 67.1571 121.413 66.7683 121.691 66.548C123.722 64.9418 125.945 63.5277 127.746 61.6979C129.012 60.4106 130.243 59.9198 131.973 59.5022C134.096 58.9899 136.196 58.2711 138.376 57.8607C141.746 57.2255 145.094 56.9034 148.492 57.7189C150.3 58.1528 152.23 58.175 153.971 58.7743C156.239 59.5539 158.381 60.7033 160.563 61.726C165.109 63.8564 167.717 67.7589 169.956 72.0111C170.648 73.3246 171.708 74.4956 172.148 75.8764C172.572 77.2056 172.226 78.7648 172.552 80.1443C172.971 81.9146 173.079 83.5509 172.557 85.346C172.068 87.0215 172.147 88.8539 171.771 90.5725C171.355 92.4755 170.825 94.3411 169.124 95.6723C168.56 96.114 168.206 97.121 168.176 97.8863C168.119 99.3553 167.298 100.424 166.41 101.278C164.465 103.149 162.3 104.789 160.233 106.532C159.829 106.874 159.462 107.258 159.077 107.622C159.598 107.941 160.324 108.657 160.605 108.512C162.014 107.781 162.903 108.695 163.931 109.279C165.093 109.939 166.281 110.225 167.677 110.005C169.514 109.716 171.346 109.591 172.99 111.009C174.052 111.926 175.416 111.863 176.62 110.929C177.284 110.414 178.003 109.971 178.675 109.465C181.003 107.711 183.548 107.174 186.329 108.141C188.022 108.729 189.65 109.534 191.373 110C193.071 110.459 194.847 110.811 196.598 110.855C198.812 110.911 201.035 110.579 203.257 110.473C204.657 110.406 206.07 110.522 207.465 110.415C208.662 110.323 209.878 110.149 211.024 109.805C214.32 108.816 217.542 107.551 220.873 106.714C224.649 105.765 228.512 105.164 232.337 104.407C233.366 104.203 234.064 104.31 234.415 105.572C235.007 107.699 236.178 109.675 236.113 112.02V112.017ZM83.5629 130.695C83.5949 130.343 83.6328 129.992 83.6577 129.639C83.6799 129.324 83.8269 128.863 83.6766 128.718C83.2296 128.287 82.3748 127.574 82.1964 127.7C81.5691 128.145 81.1136 128.87 80.7176 129.561C80.6633 129.655 81.2671 130.297 81.6553 130.435C82.2428 130.644 82.9081 130.634 83.5407 130.717C84.3615 131.405 88.3779 133.162 89.4373 133.279C89.6046 133.298 89.7817 133.232 89.9542 133.205C89.8516 133.064 89.7804 132.858 89.6412 132.79C87.7035 131.838 86.2103 129.581 83.5629 130.695ZM159.343 110.384L159.3 110.547C159.019 110.547 158.738 110.563 158.458 110.545C157.399 110.476 157.041 110.83 157.377 111.722C157.8 112.846 158.37 113.919 158.744 115.057C159.176 116.373 158.838 117.008 157.491 117.274C155.956 117.577 154.386 117.822 152.827 117.847C151.13 117.874 150.02 118.494 149.398 120.088C148.828 121.552 148.148 122.973 147.547 124.425C146.133 127.841 145.062 131.365 144.372 134.995C143.857 137.71 143.423 140.441 142.94 143.162C142.297 146.79 141.635 150.414 140.996 154.043C140.308 157.944 139.694 161.857 138.943 165.745C138.192 169.633 137.454 173.533 136.454 177.36C135.034 182.795 133.534 188.219 131.779 193.552C130.222 198.282 128.263 202.879 126.504 207.544C126.285 208.124 126.369 208.655 127.163 208.747C128.815 208.938 130.466 209.129 132.116 209.336C134.313 209.612 136.528 209.798 138.698 210.215C141.141 210.684 141.6 210.562 142.418 208.189C143.497 205.057 144.353 201.842 145.554 198.759C148.404 191.449 151.245 184.14 153.5 176.619C155.145 171.134 156.3 165.545 157.072 159.873C157.457 157.037 157.734 154.178 158.302 151.378C158.893 148.462 159.398 145.561 159.321 142.577C159.307 142.016 159.304 141.449 159.369 140.893C159.714 137.961 160.064 135.029 160.447 132.101C160.71 130.09 160.846 128.037 161.363 126.089C162.451 121.992 163.749 117.95 164.968 113.887C165.471 112.212 165.45 111.973 163.899 111.466C162.421 110.982 160.866 110.735 159.345 110.383L159.343 110.384ZM164.505 71.8053C164.375 69.2195 164.069 67.5616 162.881 66.65C160.322 64.6876 158.047 62.3187 154.962 61.0725C153.221 60.3694 151.576 60.2858 149.866 61.0804C148.441 61.7424 146.986 62.3364 145.545 62.9631C144.282 63.512 143.05 63.4754 141.769 62.9415C140.408 62.3743 138.989 61.9462 137.605 61.4326C136.043 60.8536 134.577 61.0503 133.013 61.6084C130.483 62.5109 128.627 64.2602 126.645 65.9449C123.878 68.2981 122.829 71.0355 123.902 74.5545C124.421 76.2581 124.176 77.8415 123.027 79.2798C121.757 80.8684 120.519 82.4864 119.344 84.1462C118.693 85.0683 118.259 86.14 118.565 87.3078C119.053 89.176 119.703 91.0064 120.113 92.8898C121.128 97.5458 123.825 100.139 128.702 100.249C129.058 100.257 129.404 100.494 129.765 100.541C131.469 100.765 132.542 101.84 133.438 103.185C134.513 104.797 135.542 106.446 136.716 107.983C137.258 108.691 138.026 109.523 138.817 109.686C140.799 110.093 142.852 110.29 144.878 110.304C146.527 110.315 148.207 110.066 149.82 109.7C151.343 109.354 152.717 108.759 153.467 107.058C154.206 105.383 155.367 103.894 156.346 102.325C157.061 101.178 158.095 100.519 159.409 100.216C160.934 99.8643 162.471 99.5252 163.949 99.0214C165.184 98.5999 166.098 97.8118 166.829 96.5754C168.873 93.1152 169.123 89.2028 169.969 85.4414C170.178 84.5128 169.907 83.6679 169.153 82.902C167.802 81.531 166.628 79.9875 165.318 78.5727C164.392 77.5709 163.911 76.4443 164.048 75.0949C164.16 73.9938 164.35 72.9018 164.505 71.8053ZM128.638 143.381C128.545 143.711 128.476 143.887 128.448 144.07C128.399 144.393 128.372 144.72 128.337 145.047C128.576 144.851 128.823 144.665 129.051 144.459C129.808 143.779 130.533 143.063 131.323 142.427C131.558 142.238 131.967 142.265 132.297 142.193C132.201 142.589 132.224 143.091 131.986 143.363C131.246 144.205 130.534 145.353 129.578 145.662C127.844 146.223 127.66 147.519 127.539 148.838C127.35 150.908 127.321 152.941 126.515 154.956C126.126 155.929 126.96 157.332 126.766 158.458C126.573 159.581 125.642 160.558 125.303 161.681C125.019 162.622 125.252 163.413 126.405 162.32C126.531 162.201 126.89 162.33 127.141 162.343C127.109 162.585 127.139 162.861 127.03 163.062C126.767 163.545 126.537 164.127 126.12 164.429C124.937 165.282 124.666 166.524 124.455 167.814C124.406 168.112 124.481 168.429 124.5 168.738C124.743 168.629 124.998 168.54 125.227 168.404C125.832 168.047 126.426 167.67 127.024 167.301C127.358 168.361 126.688 168.956 125.991 169.543C125.719 169.772 125.485 170.051 125.193 170.247C123.999 171.049 123.772 172.315 123.583 173.588C123.53 173.945 123.635 174.326 123.668 174.697C123.956 174.524 124.272 174.384 124.526 174.171C124.883 173.872 125.153 173.451 125.539 173.204C126.03 172.889 126.926 172.355 127.082 172.504C127.917 173.306 126.792 173.469 126.455 173.881C125.813 174.668 125.26 175.661 124.425 176.127C123.116 176.857 122.914 178.033 122.356 179.201C121.593 180.794 122.399 182.537 121.392 184.08C120.343 185.686 119.628 187.513 118.791 189.255C118.691 189.461 118.742 189.741 118.722 189.986C118.933 189.82 119.158 189.668 119.353 189.484C120.006 188.867 120.629 188.214 121.312 187.631C121.459 187.506 121.808 187.619 122.064 187.621C122.022 187.851 122.06 188.158 121.924 188.299C120.954 189.314 120.083 190.519 118.916 191.225C117.763 191.922 117.22 192.848 116.745 193.97C116.13 195.416 115.456 196.836 114.836 198.28C114.746 198.488 114.815 198.765 114.812 199.01C114.957 198.894 115.095 198.764 115.251 198.663C115.812 198.298 116.081 197.333 117.041 197.785C116.739 198.412 116.527 199.109 116.11 199.647C115.667 200.218 115.027 200.635 114.478 201.125C113.997 201.555 113.418 201.925 113.086 202.451C112.901 202.744 112.975 203.484 113.216 203.694C113.569 204.001 114.265 204.243 114.657 204.095C115.23 203.88 115.643 203.266 116.169 202.881C116.355 202.745 116.67 202.785 116.927 202.745C116.932 202.97 117.017 203.234 116.928 203.411C116.621 204.022 116.253 204.601 115.909 205.193C116.589 205.468 117.26 205.77 117.952 206.013C119.084 206.413 120.225 206.786 121.368 207.15C124.084 208.014 124.361 207.964 125.308 205.425C126.986 200.929 128.545 196.387 130.139 191.86C130.275 191.475 130.307 191.055 130.388 190.651C130.096 190.882 129.829 191.168 129.501 191.326C129.295 191.425 128.808 191.404 128.776 191.315C128.666 191.017 128.568 190.581 128.712 190.352C129.006 189.886 129.431 189.49 129.851 189.12C131.215 187.923 132.184 186.518 132.608 184.709C133.196 182.201 133.914 179.723 134.54 177.223C134.624 176.883 134.535 176.178 134.46 176.168C132.796 175.961 133.644 175.252 134.169 174.689C135.016 173.781 135.71 172.832 135.717 171.512C135.72 170.79 135.717 170.179 134.726 170.663C134.566 170.325 134.204 169.919 134.29 169.665C134.428 169.258 134.807 168.87 135.182 168.617C136.839 167.501 136.89 165.645 137.371 163.991C137.443 163.744 137.324 163.441 137.293 163.164C137.14 163.386 137.015 163.635 136.829 163.825C136.109 164.559 135.399 165.308 134.615 165.968C134.444 166.112 133.961 165.967 133.674 165.838C133.591 165.8 133.588 165.244 133.727 165.112C134.792 164.089 135.901 163.111 137 162.122C137.306 161.847 137.831 161.627 137.898 161.307C138.18 159.954 138.298 158.568 138.53 157.203C138.715 156.121 138.879 155.017 139.235 153.986C139.606 152.91 140.084 151.949 139.021 150.968C138.815 150.779 138.807 149.951 138.964 149.86C140.526 148.955 139.919 147.133 140.692 145.91C140.802 145.735 140.635 145.385 140.596 145.116C140.373 145.267 140.168 145.459 139.925 145.558C139.616 145.684 139.276 145.736 138.949 145.82C138.985 145.5 138.915 145.106 139.077 144.875C139.606 144.121 140.227 143.432 140.798 142.707C141.246 142.136 141.41 139.458 141.221 139.567C140.59 139.933 140.074 140.492 139.487 140.941C139.301 141.082 139.028 141.11 138.796 141.19C138.766 140.939 138.615 140.596 138.725 140.451C139.505 139.421 140.221 138.296 141.19 137.475C141.977 136.807 142.263 136.078 142.467 135.153C143.023 132.634 143.616 130.121 144.276 127.627C144.488 126.827 145.42 125.857 143.539 126.195C143.528 126.197 143.327 125.712 143.411 125.582C143.914 124.806 144.452 124.05 145.023 123.323C145.652 122.523 146.388 121.802 146.963 120.967C147.25 120.549 147.282 119.954 147.43 119.439C146.958 119.571 146.463 119.651 146.02 119.849C145.516 120.074 145.086 120.467 144.58 120.678C142.554 121.521 141.894 123.708 140.3 124.959C139.707 125.424 139.415 126.491 138.317 126.075C138.61 125.449 138.878 124.81 139.204 124.202C139.462 123.723 139.793 123.284 140.092 122.826C139.606 122.664 139.055 122.596 138.646 122.319C137.886 121.802 137.129 121.236 136.518 120.558C135.805 119.768 135.438 120.029 134.56 120.482C132.413 121.591 132.355 123.742 131.531 125.514C131.429 125.734 131.442 126.226 131.573 126.303C133.295 127.325 131.988 128.005 131.399 128.893C130.904 129.641 130.623 130.554 130.362 131.428C130.092 132.33 130.404 132.53 131.437 132.26C131.741 132.181 132.069 132.196 132.386 132.168C132.294 132.496 132.285 132.883 132.097 133.141C131.347 134.177 130.43 135.108 129.797 136.205C129.408 136.879 129.419 137.786 129.251 138.588C129.872 138.193 130.49 137.795 131.113 137.405C131.189 137.358 131.291 137.347 131.383 137.332C131.705 137.282 132.027 137.237 132.349 137.19C132.282 137.518 132.318 137.931 132.129 138.158C131.592 138.804 130.97 139.38 130.371 139.974C129.377 140.962 128.151 141.829 128.638 143.383L128.638 143.381ZM157.629 206.15C157.621 206.06 157.648 205.389 157.491 204.766C157.391 204.366 157.072 203.867 156.508 204.39C156.164 204.707 155.873 205.093 155.496 205.361C154.873 205.803 154.601 206.872 153.514 206.515C153.847 205.814 154.11 205.067 154.534 204.425C154.888 203.888 155.348 203.311 155.903 203.042C156.872 202.572 157.172 201.716 157.371 200.858C157.745 199.243 158.03 197.599 158.221 195.952C158.404 194.388 160.257 192.883 158.455 191.202C158.404 191.153 158.617 190.667 158.81 190.532C160.916 189.056 160.642 186.342 161.98 184.47C162.056 184.363 161.963 184.134 161.949 183.962C161.809 184.031 161.643 184.072 161.533 184.174C160.779 184.872 160.054 185.604 159.275 186.272C159.138 186.39 158.787 186.269 158.538 186.234C158.498 186.229 158.428 186.062 158.451 186.035C159.449 184.833 160.256 183.005 161.513 182.608C162.969 182.15 163.305 181.305 163.773 180.277C164.348 179.017 164.89 177.74 165.416 176.458C165.613 175.977 165.724 175.461 165.875 174.961C165.465 175.292 165.082 175.668 164.634 175.937C164.361 176.101 163.989 176.1 163.662 176.173C163.743 175.873 163.767 175.539 163.918 175.279C164.241 174.722 164.507 173.967 165.01 173.705C167.921 172.192 168.101 169.39 168.531 166.675C168.611 166.173 168.803 165.689 168.92 165.191C169.263 163.742 171.064 162.353 169.094 160.763C168.986 160.676 169.336 159.72 169.688 159.418C171.169 158.148 171.854 156.524 172.361 154.679C173.092 152.021 174.176 149.48 175.568 147.077C176.009 146.315 176.234 145.428 176.558 144.598C175.989 145.021 175.441 145.478 174.838 145.842C174.697 145.928 174.263 145.773 174.156 145.605C174.043 145.429 174.061 145.027 174.194 144.861C174.658 144.279 175.259 143.798 175.681 143.191C175.887 142.895 176.004 142.244 175.828 142.033C175.365 141.477 174.426 141.173 174.229 140.584C174.027 139.982 174.563 139.167 174.622 138.432C174.666 137.895 174.642 137.022 174.336 136.848C173.238 136.224 174.011 135.41 173.914 134.696C173.634 132.6 173.351 130.502 172.999 128.417C172.837 127.457 172.623 127.838 172.204 128.384C171.583 129.191 170.784 129.867 170.018 130.55C169.863 130.687 169.328 130.692 169.29 130.609C169.158 130.324 169.009 129.834 169.152 129.669C169.945 128.751 170.718 127.753 171.699 127.075C172.855 126.277 173.115 125.553 172.393 124.327C172.074 123.784 171.952 123.674 171.5 124.112C170.763 124.825 170.007 125.521 169.233 126.195C169.148 126.268 168.863 126.199 168.737 126.105C168.645 126.037 168.582 125.763 168.643 125.681C169.355 124.712 169.929 123.53 170.865 122.865C172.127 121.97 172.385 120.912 172.241 119.562C172.211 119.285 172.169 119.009 172.132 118.733C171.9 118.865 171.66 118.986 171.436 119.131C170.712 119.599 170.078 121.154 169.315 120.386C168.315 119.379 169.919 118.718 170.531 118.099C171.506 117.112 172.638 116.34 172.268 114.672C172.144 114.115 172.284 113.499 172.304 112.91C171.905 113.384 171.553 113.911 171.096 114.318C170.542 114.812 170.05 116.088 169.193 115.254C168.541 114.619 169.435 113.804 169.987 113.214C170.045 113.152 170.188 113.164 170.236 113.1C170.495 112.752 170.737 112.391 170.985 112.034C170.561 111.922 170.141 111.786 169.711 111.701C168.646 111.494 167.952 112.002 167.513 112.922C166.921 114.165 166.305 115.399 165.792 116.676C165.61 117.127 165.685 117.566 166.468 117.247C167.021 117.021 167.345 117.35 166.996 117.977C166.772 118.38 166.638 118.919 166.297 119.155C164.426 120.45 164.161 122.545 163.547 124.466C163.471 124.706 163.588 125.006 163.616 125.278C163.82 125.123 164.061 124.998 164.223 124.807C164.879 124.034 165.478 123.209 166.178 122.479C166.334 122.317 166.816 122.47 167.147 122.477C167.116 122.81 167.214 123.284 167.031 123.453C165.95 124.448 164.801 125.37 163.681 126.322C163.426 126.539 163.023 126.748 162.974 127.012C162.724 128.37 162.127 129.876 162.483 131.084C162.982 132.77 161.318 133.826 161.78 135.331C161.913 135.766 161.821 136.467 162.085 136.626C162.79 137.052 162.72 137.352 162.259 137.892C161.364 138.941 161.093 140.19 161.225 141.548C161.266 141.963 161.292 142.181 161.84 142.017C162.688 141.763 162.789 142.061 162.377 142.823C161.766 143.953 161.191 145.12 160.769 146.329C160.52 147.04 160.676 147.738 161.749 147.136C161.946 147.026 162.253 147.113 162.51 147.109C162.48 147.338 162.521 147.613 162.408 147.788C161.957 148.486 161.561 149.27 160.954 149.807C159.945 150.701 160.081 151.801 160.116 152.91C160.136 153.565 160.443 153.327 160.776 153.102C161.329 152.727 161.607 151.769 162.567 152.226C162.264 152.852 162.032 153.529 161.639 154.093C161.216 154.7 160.526 155.136 160.16 155.767C159.663 156.623 159.32 157.58 159.001 158.523C158.9 158.821 159.086 159.217 159.14 159.567C159.435 159.347 159.73 159.126 160.026 158.906C160.82 158.319 161.614 157.733 162.407 157.146C162.568 158.472 161.525 159.173 160.858 160.049C160.528 160.483 160.075 160.902 159.586 161.117C158.796 161.464 158.572 162.008 158.374 162.809C157.758 165.312 157.838 167.957 156.784 170.377C156.593 170.813 156.678 171.754 156.973 171.947C158.048 172.651 157.298 173.087 156.923 173.664C156.018 175.059 155.197 176.502 154.954 178.188C154.922 178.408 154.948 178.637 154.947 178.862C155.082 178.757 155.236 178.667 155.35 178.542C155.531 178.341 155.643 178.02 155.862 177.92C156.344 177.699 156.874 177.584 157.385 177.425C157.221 177.869 157.147 178.382 156.874 178.744C156.213 179.627 155.598 180.665 154.703 181.219C153.798 181.779 153.445 182.413 153.179 183.358C152.762 184.839 152.344 186.199 152.393 187.856C152.431 189.162 150.838 190.48 150.098 191.862C149.781 192.455 149.789 193.223 149.649 193.911C150.188 193.573 150.722 193.227 151.268 192.902C151.503 192.762 151.755 192.622 152.018 192.567C152.161 192.537 152.404 192.643 152.484 192.765C152.548 192.862 152.481 193.122 152.384 193.231C151.951 193.722 151.542 194.261 151.023 194.645C148.693 196.364 147.519 198.804 146.657 201.453C146.552 201.778 146.318 202.347 146.405 202.404C147.801 203.317 146.826 204.028 146.151 204.561C145.022 205.451 144.847 206.766 144.395 207.956C144.14 208.627 144.051 209.36 143.886 210.066C144.315 209.596 144.743 209.125 145.174 208.657C145.301 208.52 145.416 208.322 145.575 208.272C146.145 208.094 146.731 207.968 147.312 207.822C147.103 208.258 146.927 208.714 146.678 209.125C146.352 209.661 145.969 210.161 145.61 210.677C146.297 210.881 147.001 211.284 147.665 211.226C148.174 211.181 148.668 210.592 149.106 210.179C149.961 209.374 150.755 208.503 151.622 207.712C151.742 207.603 152.174 207.733 152.379 207.873C152.464 207.931 152.412 208.385 152.28 208.529C151.588 209.291 150.845 210.006 150.132 210.749C149.942 210.947 149.793 211.184 149.626 211.402C149.953 211.578 150.264 211.833 150.612 211.906C150.928 211.972 151.286 211.844 151.624 211.793C153.349 211.537 154.285 210.231 155.329 209.044C155.733 208.585 156.252 208.205 156.778 207.884C157.018 207.737 157.816 209.01 157.634 207.554C157.599 207.277 157.629 206.992 157.629 206.148V206.15ZM46.8052 329.506C47.0536 329.28 47.3032 329.122 47.4607 328.899C48.0456 328.068 48.537 327.164 49.1781 326.381C50.5825 324.664 51.8091 322.669 53.5501 321.386C58.5252 317.72 63.8277 314.499 68.7976 310.826C73.1114 307.638 77.2716 304.212 81.2685 300.633C84.8536 297.421 88.1995 293.933 90.9554 289.928C92.031 288.365 92.0964 288.321 90.413 287.707C85.1366 285.784 80.2222 283.283 76.2855 279.127C75.0007 277.771 74.7164 277.869 72.9448 278.955C69.4884 281.073 66.8633 284.022 64.5028 287.251C62.475 290.026 60.8255 293.016 59.1859 296.033C56.6248 300.746 53.7402 305.282 51.1484 309.979C49.5767 312.828 47.843 315.475 45.2081 317.447C43.5815 318.665 42.0608 320.053 40.3284 321.089C39.0364 321.861 39.3514 322.312 40.1807 323.091C42.2385 325.024 44.9532 326.299 46.1864 329.069C46.2746 329.267 46.5915 329.361 46.8052 329.506ZM103.116 197.929C102.822 198.841 103.217 199.256 104.014 199.622C105.784 200.436 107.504 201.358 109.272 202.176C110.681 202.827 110.896 202.734 111.602 201.289C112.006 200.463 112.237 199.547 112.676 198.743C115.52 193.524 117.521 187.942 119.629 182.416C120.543 180.02 121.169 177.479 121.611 174.949C122.183 171.678 122.316 168.331 122.86 165.053C123.659 160.241 124.72 155.474 125.553 150.668C126.56 144.858 127.546 139.04 128.353 133.2C129.117 127.675 130.444 122.344 132.864 117.308C133.215 116.577 133.351 116.056 132.386 115.591C130.102 114.491 127.917 113.196 125.572 112.203C124.757 111.858 124.319 111.956 124.173 112.772C123.116 118.67 121.017 124.304 120.038 130.247C119.067 136.135 117.223 141.874 115.972 147.722C114.97 152.403 114.057 157.125 113.518 161.876C112.985 166.583 112.095 171.181 110.585 175.644C108.722 181.152 106.653 186.59 104.748 192.085C104.087 193.992 103.654 195.979 103.116 197.929ZM30.8944 59.9597C30.2121 59.9597 29.7435 59.9531 29.2756 59.9616C28.7117 59.9714 28.1222 59.9466 28.0444 60.7393C27.9627 61.5764 28.2045 62.2423 29.075 62.4854C29.4259 62.5834 29.8265 62.4886 30.1925 62.5507C33.6423 63.1415 37.1138 63.6381 40.529 64.3896C42.5823 64.8412 43.8703 66.7938 43.7142 68.764C43.6802 69.1979 43.2168 69.5978 42.9515 70.0128C42.5437 69.7213 42.0824 69.4795 41.7471 69.1208C41.5112 68.8685 41.3465 68.4627 41.3223 68.1131C41.238 66.8977 40.2369 66.5435 39.4095 66.337C36.5537 65.624 33.6587 65.0633 30.7689 64.4929C30.4951 64.4386 30.1539 64.7255 29.8435 64.8542C30.099 65.0784 30.318 65.392 30.6153 65.511C32.0707 66.0939 33.5848 66.5428 35.0062 67.195C36.7857 68.0112 37.0327 68.766 36.6955 70.7042C36.5785 71.3766 36.5178 72.3091 36.8792 72.7757C39.9408 76.7273 42.9358 80.7527 46.2811 84.4573C50.9021 89.574 56.3588 93.7543 62.0639 97.6249C68.3343 101.879 74.5093 106.273 80.7208 110.614C81.4005 111.089 82.0514 111.607 82.7036 112.12C83.1702 112.487 83.5538 112.386 83.8302 111.914C85.3143 109.376 87.3683 107.198 88.2368 104.265C88.9831 101.744 88.195 98.824 86.0403 97.7948C81.3632 95.5599 76.9978 92.8009 72.6853 89.9563C67.2103 86.3452 61.7522 82.7066 56.3444 78.9949C53.8304 77.269 51.4138 75.3935 49.0265 73.4932C47.3313 72.1438 45.9106 70.4826 45.3061 68.3628C44.6944 66.2174 43.4031 64.6262 41.9543 63.0036C40.4316 61.2987 39.1089 59.3683 37.9672 57.3817C36.6772 55.137 35.6924 52.7178 34.5553 50.3836C34.3978 50.0608 34.1514 49.7693 33.8985 49.5106C33.794 49.404 33.528 49.3459 33.3986 49.4047C33.2672 49.4648 33.1137 49.719 33.1437 49.8477C33.245 50.2875 33.3888 50.726 33.5776 51.1364C34.8546 53.915 36.1838 56.6694 37.4065 59.4709C37.6973 60.1381 38.6292 60.8752 37.664 61.7038C36.8863 62.3717 36.2956 61.579 35.6963 61.3085C34.09 60.5818 32.583 59.5604 30.8944 59.9584V59.9597ZM112.104 160.341C112.104 159.945 112.115 159.757 112.101 159.571C112.082 159.292 112.046 159.015 112.017 158.738C111.729 158.894 111.402 159.005 111.162 159.216C110.53 159.77 109.955 160.392 109.311 160.931C109.159 161.058 108.82 160.962 108.567 160.969C108.58 160.731 108.499 160.414 108.621 160.269C109.385 159.362 110.058 158.266 111.029 157.674C112.073 157.038 112.601 156.514 112.754 155.185C113.048 152.639 113.764 150.142 114.281 147.619C114.355 147.26 114.457 146.693 114.274 146.531C112.943 145.35 113.921 144.582 114.58 143.587C115.221 142.619 115.579 141.457 116.008 140.359C116.096 140.134 115.95 139.817 115.911 139.543C115.688 139.67 115.474 139.817 115.24 139.921C114.573 140.219 114.475 141.499 113.358 141.015C113.689 140.383 113.993 139.734 114.362 139.125C114.597 138.737 114.858 138.247 115.23 138.084C116.627 137.471 116.957 136.297 117.191 134.963C117.493 133.242 117.861 131.529 118.305 129.839C118.634 128.584 119.223 127.403 118.518 126.066C118.369 125.783 118.546 125.057 118.81 124.868C120.432 123.711 119.716 121.737 120.491 120.301C120.553 120.187 120.41 119.961 120.362 119.788C120.206 119.89 120.037 119.977 119.896 120.097C119.612 120.34 119.358 120.62 119.062 120.846C118.941 120.938 118.745 120.932 118.584 120.971C118.539 120.721 118.386 120.42 118.474 120.232C118.629 119.906 118.939 119.656 119.171 119.365C120.01 118.309 121.14 117.368 121.616 116.168C122.598 113.69 123.249 111.079 123.983 108.507C124.083 108.158 124.017 107.499 123.795 107.362C122.274 106.425 120.93 104.893 118.78 105.877C117.935 106.264 118.022 105.714 118.154 105.029C118.305 104.242 117.675 103.799 116.943 103.885C115.946 104.002 116.216 104.867 116.343 105.43C116.528 106.253 117.23 106.722 117.167 107.884C116.973 111.493 117.32 115.128 117.358 118.754C117.373 120.156 117.275 121.597 116.949 122.953C116.631 124.272 115.949 125.503 115.446 126.78C115.357 127.007 115.364 127.273 115.326 127.52C115.637 127.459 115.951 127.413 116.257 127.333C116.563 127.254 116.861 127.141 117.162 127.042C117.105 127.371 117.138 127.757 116.973 128.018C116.529 128.716 116.141 129.607 115.481 129.984C112.186 131.87 111.573 135.769 109.111 138.257C109.034 138.335 109.125 138.58 109.138 138.746C109.278 138.678 109.429 138.625 109.554 138.537C110.154 138.11 110.732 137.653 111.35 137.256C111.537 137.135 111.825 137.171 112.067 137.135C112.031 137.463 112.121 137.919 111.939 138.098C110.746 139.27 109.525 140.419 108.253 141.503C107.24 142.366 105.703 145.896 106.445 146.612C107.498 147.629 107.008 148.081 106.406 148.869C106.157 149.193 106.275 149.774 106.133 150.208C105.739 151.405 107.217 152.242 107.002 152.942C106.679 153.997 105.449 154.729 105.302 156.033C105.251 156.485 105.09 156.933 104.925 157.361C104.716 157.9 104.535 158.271 105.414 157.932C105.738 157.807 106.191 158.014 106.585 158.07C106.458 158.402 106.42 158.823 106.19 159.051C105.274 159.961 104.147 160.695 103.376 161.707C101.866 163.688 100.524 165.798 99.1536 167.882C98.7491 168.497 98.4661 169.196 98.17 169.875C98.106 170.022 98.2249 170.25 98.2596 170.44C98.4138 170.348 98.602 170.286 98.717 170.158C99.577 169.2 100.416 168.223 101.287 167.276C101.352 167.206 101.655 167.273 101.779 167.367C101.875 167.439 101.948 167.722 101.889 167.793C100.956 168.929 100.204 170.451 98.9954 171.062C97.5564 171.789 97.161 172.664 97.1447 174.052C97.1179 176.328 96.6977 178.535 95.8233 180.641C95.575 181.239 95.2142 181.792 94.9816 182.395C94.896 182.618 95.03 182.926 95.0646 183.195C95.2822 183.062 95.4874 182.899 95.7207 182.802C96.035 182.672 96.3709 182.594 96.697 182.494C96.6422 182.793 96.6755 183.153 96.5173 183.381C95.9383 184.215 95.3574 185.065 94.662 185.799C93.6315 186.886 93.3648 188.207 93.2655 189.605C93.255 189.754 93.3936 189.988 93.5243 190.048C93.6341 190.098 93.8824 189.998 93.9857 189.886C94.6588 189.16 94.8489 187.693 96.4017 188.351C96.5043 189.712 95.1933 190.086 94.5869 190.951C94.534 191.027 94.4647 191.11 94.3843 191.143C93.0531 191.687 92.9806 192.975 92.6891 194.101C92.578 194.529 92.7231 195.023 92.7518 195.487C93.1047 195.259 93.4903 195.068 93.8027 194.794C94.2948 194.363 94.6888 193.807 95.2149 193.431C95.6763 193.102 96.2625 192.947 96.7938 192.716C96.5879 193.284 96.386 193.853 96.171 194.417C96.1403 194.498 96.0422 194.551 95.9828 194.623C95.5273 195.171 95.0731 195.72 94.6189 196.268C95.3097 196.523 96.0017 196.774 96.6905 197.035C97.5544 197.362 98.3975 197.764 99.2836 198.01C100.042 198.22 100.75 198.117 101.066 197.174C101.242 196.65 101.629 196.199 101.809 195.677C102.765 192.887 103.689 190.086 104.618 187.287C104.793 186.761 105.229 185.899 105.056 185.748C103.474 184.357 105.082 183.798 105.655 182.923C106.202 182.085 106.737 181.196 107.049 180.255C107.596 178.597 107.891 176.857 108.441 175.201C108.899 173.818 109.581 172.51 110.138 171.158C110.227 170.943 110.178 170.671 110.193 170.425C109.978 170.584 109.783 170.797 109.544 170.89C109.24 171.007 108.898 171.028 108.573 171.091C108.626 170.768 108.591 170.39 108.752 170.135C108.984 169.767 109.442 169.536 109.656 169.162C110.292 168.05 110.902 166.918 111.421 165.749C111.591 165.363 111.45 164.84 111.451 164.379C111.107 164.587 110.739 164.764 110.425 165.011C110.059 165.298 109.768 165.686 109.389 165.953C109.199 166.087 108.888 166.049 108.631 166.089C108.61 165.858 108.482 165.545 108.586 165.408C109.308 164.452 109.959 163.384 110.869 162.643C111.736 161.936 112.382 161.317 112.104 160.342V160.341ZM113.703 240.795C113.48 240.74 113.184 240.564 113.042 240.648C111.932 241.307 110.823 241.974 109.773 242.723C109.12 243.19 108.75 243.696 107.645 243.456C106.496 243.206 105.033 243.608 103.914 244.15C99.5614 246.257 95.209 248.419 93.4099 253.468C92.7728 255.255 91.7186 256.753 89.9012 257.617C89.4346 257.839 89.0419 258.361 88.7759 258.835C86.6945 262.55 84.6327 266.275 82.6095 270.021C81.918 271.301 82.1278 272.319 83.1316 273.197C84.2471 274.172 85.2797 275.304 86.5422 276.034C88.0309 276.894 89.351 279.106 91.5402 277.181C91.6448 277.088 91.9925 277.282 92.229 277.331C93.0609 277.504 93.8896 277.7 94.73 277.814C94.8627 277.833 95.2129 277.415 95.1731 277.305C95.0731 277.032 94.828 276.792 94.5901 276.602C94.5333 276.557 94.268 276.847 94.119 276.828C93.702 276.773 93.1694 276.753 92.9296 276.492C92.7682 276.316 92.976 275.736 93.1054 275.368C93.6922 273.703 94.6261 272.259 95.6521 270.812C96.2265 270.003 96.152 268.808 97.6185 269.42C97.6231 269.154 97.6767 268.877 97.6133 268.628C97.5786 268.492 97.3473 268.406 97.2048 268.296C98.319 267.854 98.0478 266.502 98.7778 265.873C99.1418 265.56 100.002 265.79 100.321 265.465C100.651 265.13 100.572 264.41 100.727 263.874C100.767 263.733 101.094 263.525 101.151 263.563C102.535 264.452 102.654 263.118 103.306 262.49C103.929 261.891 104.914 261.667 105.74 261.277C106.779 262.795 106.966 261.813 107.254 260.804C107.332 260.534 107.904 260.132 108.046 260.202C108.833 260.591 109.046 260.123 109.565 259.643C110.258 259.001 111.341 258.399 112.22 258.448C113.09 258.496 113.748 258.765 114.237 257.834C114.249 257.812 114.828 257.961 114.864 258.102C114.995 258.608 115.023 259.145 115.055 259.671C115.069 259.903 114.999 260.14 114.967 260.374C115.132 260.218 115.315 260.078 115.457 259.903C115.716 259.582 116.077 258.918 116.176 258.956C117.348 259.415 117.647 258.799 117.792 257.825C117.815 257.665 118.213 257.393 118.322 257.44C119.271 257.853 119.268 257.455 118.857 256.81C116.822 253.623 115.344 250.072 112.599 247.346C111.522 246.277 110.567 245.084 109.557 243.948C110.838 243.077 112.12 242.207 113.401 241.335C113.478 241.282 113.564 241.228 113.612 241.153C113.657 241.083 113.657 240.985 113.701 240.794L113.703 240.795ZM201.101 117.444C201.16 120.401 202.301 123.03 203.684 125.559C204.157 126.426 205.013 126.867 206.075 126.601C209.732 125.683 213.408 124.826 217.043 123.823C220.863 122.77 224.641 121.562 228.446 120.451C229.913 120.022 230.856 119.125 231.216 117.637C231.832 115.081 231.825 112.612 231.212 109.978C230.841 108.384 230.152 107.727 228.521 107.786C227.145 107.837 225.772 108.093 224.41 108.327C221.599 108.81 218.769 109.227 215.994 109.874C212.049 110.794 208.142 111.879 204.228 112.927C201.918 113.546 201.132 114.733 201.101 117.444ZM83.9995 322.749C84.0746 322.761 84.1504 322.773 84.2256 322.785C84.2256 323.253 84.2086 323.721 84.2282 324.188C84.3125 326.206 85.0359 327.088 86.9455 326.825C89.5418 326.467 92.1545 325.686 93.2446 322.961C94.1262 320.757 94.7359 318.416 95.211 316.084C96.0808 311.81 97.2813 307.715 99.7947 304.058C101.253 301.936 102.624 299.717 103.733 297.397C105.434 293.84 103.214 291.334 100.057 290.576C99.7404 290.5 99.3549 290.713 99.0013 290.792C99.0614 291.042 99.0412 291.369 99.1941 291.53C100.47 292.87 100.101 294.296 99.3431 295.651C98.3975 297.343 97.2734 298.935 96.3115 300.618C94.8385 303.195 92.7518 304.728 89.7614 305.223C88.2498 305.472 86.8311 306.278 85.3685 306.829C84.7255 307.071 84.7967 307.456 85.1588 307.885C86.49 309.46 85.9149 311.225 85.6398 312.943C85.115 316.215 84.549 319.481 83.9995 322.749ZM89.6183 112.235C88.4165 112.105 87.333 112.329 86.7043 113.454C86.0273 114.666 85.4385 115.93 84.8601 117.194C84.766 117.399 84.9242 117.721 84.966 117.989C85.1862 117.837 85.3895 117.644 85.6313 117.544C85.941 117.414 86.2821 117.359 86.6095 117.272C86.5403 117.572 86.5324 117.904 86.3906 118.164C85.7443 119.35 87.1539 119.383 87.4624 120.031C87.4813 120.072 88.2217 119.897 88.4943 119.665C89.4183 118.881 90.2757 118.019 91.1828 117.214C91.2618 117.144 91.552 117.224 91.6749 117.321C91.7644 117.393 91.816 117.667 91.7526 117.749C91.0312 118.686 90.411 119.765 89.5052 120.479C88.7047 121.11 89.0961 121.314 89.6124 121.524C90.7894 122.002 91.9134 122.526 92.8936 123.371C93.4707 123.868 94.134 124.195 94.7633 123.244C95.0417 122.824 95.6253 122.575 96.1135 122.338C96.2991 122.248 96.6062 122.409 96.8578 122.454C96.8219 122.616 96.8225 122.799 96.7434 122.936C96.5134 123.335 96.2801 123.738 95.9971 124.099C95.4325 124.819 96.0043 125.113 96.503 125.196C97.0702 125.289 97.7949 125.316 98.2406 125.036C98.8425 124.659 99.217 123.933 99.7398 123.408C100.242 122.904 100.79 122.439 101.361 122.016C101.502 121.911 101.811 122.034 102.043 122.053C102.005 122.309 102.059 122.646 101.915 122.807C101.232 123.575 100.491 124.291 99.7783 125.034C98.9569 125.891 99.0555 126.246 100.244 126.541C101.224 126.784 102.217 126.983 103.21 127.163C104.246 127.35 105.186 127.797 106.367 127.196C106.975 126.887 108.128 127.446 108.948 127.807C110.24 128.376 111.258 125.911 112.569 127.554C112.757 127.352 113.145 127.063 113.101 126.962C112.646 125.911 113.314 125.353 113.856 124.587C114.412 123.803 114.619 122.752 114.878 121.791C114.953 121.515 114.766 120.983 114.539 120.857C114.219 120.68 113.75 120.771 113.345 120.747C113.593 120.275 113.831 119.798 114.091 119.333C114.446 118.698 114.089 118.519 113.546 118.464C112.412 118.349 111.39 118.409 110.628 119.511C110.238 120.075 109.557 120.453 108.966 120.855C108.829 120.948 108.504 120.831 108.307 120.729C108.248 120.699 108.29 120.383 108.352 120.224C108.417 120.057 108.595 119.935 108.667 119.769C108.887 119.254 110.064 119.06 109.376 118.317C109.027 117.941 108.177 117.879 107.577 117.933C107.082 117.978 106.56 118.332 106.157 118.675C105.447 119.28 104.842 120.008 104.139 120.624C103.946 120.793 103.561 120.744 103.265 120.794C103.309 120.537 103.275 120.229 103.407 120.033C103.92 119.266 104.521 118.557 105.008 117.777C105.148 117.553 105.102 116.917 104.995 116.878C103.084 116.191 101.298 114.75 99.0765 115.724C98.3942 116.024 98.0563 116.058 98.1936 115.122C98.3328 114.173 97.4388 113.868 96.8519 113.494C96.7036 113.399 96.0651 114.044 95.671 114.371C95.1894 114.771 94.7568 115.239 94.2451 115.593C93.9863 115.773 93.6001 115.768 93.2714 115.846C93.2975 115.52 93.242 115.157 93.3688 114.876C93.5557 114.463 93.8896 114.119 94.1262 113.725C94.2588 113.504 94.4163 113.232 94.3928 113C94.3647 112.72 92.1193 112.445 91.8912 112.711C91.4723 113.2 91.2128 113.938 90.6972 114.206C89.8026 114.673 89.5784 116.263 88.1296 115.76C88.1466 114.546 89.068 113.911 89.7908 113.146C90.0228 112.9 90.226 112.627 90.443 112.366L89.6183 112.235ZM105.492 134.533C106.054 134.533 106.615 134.539 107.177 134.531C109.289 134.505 110.645 133.549 111.372 131.585C111.654 130.822 111.533 130.373 110.599 130.246C108.135 129.911 105.689 129.436 103.22 129.146C99.2843 128.685 95.7554 127.075 92.3454 125.247C89.6647 123.811 87.2167 121.947 84.5752 120.43C83.6773 119.914 83.3544 119.35 83.4499 118.443C83.7263 115.821 81.9736 114.428 80.1627 113.157C78.8119 112.208 78.2035 112.322 77.567 113.721C76.4979 116.071 75.6326 118.513 74.687 120.919C74.655 121 74.67 121.106 74.6798 121.198C74.6994 121.381 74.7301 121.564 74.7569 121.746C74.9641 121.693 75.2111 121.695 75.3712 121.578C76.8625 120.487 78.3349 119.371 79.8236 118.277C80.0392 118.118 80.313 118.038 80.5601 117.922C80.6522 118.179 80.8293 118.439 80.8182 118.692C80.7986 119.147 80.6457 119.595 80.5862 120.05C80.4784 120.872 80.3209 121.699 80.3313 122.522C80.3398 123.195 80.5411 123.87 81.5246 123.433C81.7645 123.326 82.088 123.297 82.3402 123.361C82.5715 123.42 82.8793 123.622 82.9297 123.819C82.9793 124.012 82.8055 124.416 82.631 124.487C82.0964 124.706 81.1168 124.644 82.1879 125.516C83.3375 126.452 84.4334 127.477 85.675 128.272C91.7095 132.139 98.2825 134.362 105.492 134.533ZM95.3639 105.509C94.2627 105.509 93.6066 105.506 92.9512 105.509C90.2175 105.521 89.5216 106.076 88.6759 108.807C88.4975 109.383 88.2989 109.664 89.183 109.868C91.869 110.487 94.5183 111.271 97.1748 112.014C98.7634 112.458 100.473 112.699 101.895 113.464C105.347 115.322 108.882 116.637 112.863 116.544C115.474 116.482 115.927 116.169 116.001 113.576C116.032 112.492 115.736 111.386 115.495 110.31C115.061 108.378 115.032 108.369 113.208 108.323C110.144 108.246 107.186 107.631 104.198 106.943C101.162 106.246 98.1557 105.013 95.3632 105.507L95.3639 105.509ZM185.734 122.1C188.74 121.719 191.363 122.569 193.923 124.165C195.71 125.279 197.791 125.919 199.723 126.808C200.283 127.065 200.395 126.752 200.3 126.385C199.791 124.429 199.182 122.496 198.707 120.533C198.406 119.288 197.686 118.744 196.482 118.361C192.662 117.146 188.765 116.132 185.423 113.676C184.722 113.161 182.871 113.162 182.296 113.71C180.185 115.721 177.641 116.572 174.976 117.347C174.456 117.498 173.8 118.033 173.666 118.519C173.003 120.901 174.42 122.785 176.85 122.699C179.815 122.593 182.773 122.307 185.734 122.1ZM44.8493 331.873C44.5408 331.032 44.4611 330.191 44.0063 329.693C42.632 328.19 41.1616 326.765 39.6356 325.414C37.8744 323.856 35.9512 324.262 34.3815 325.609C32.2144 327.47 30.2624 329.581 28.2274 331.595C28.034 331.787 27.9085 332.047 27.7517 332.275C28.0771 332.349 28.3986 332.467 28.728 332.492C33.4391 332.846 36.1211 335.201 37.0621 339.809C37.2275 340.618 37.4209 341.424 37.6516 342.217C37.7228 342.462 37.9659 342.843 38.1221 342.839C38.4169 342.832 38.8416 342.664 38.9691 342.43C39.2658 341.887 39.4886 341.279 39.6154 340.671C40.0408 338.634 40.7623 336.794 42.5339 335.517C42.9816 335.194 43.4214 334.784 43.6978 334.315C44.1553 333.538 44.4768 332.682 44.8493 331.873ZM174.502 126.939C174.759 127.565 174.893 127.889 175.025 128.214C175.344 128.062 175.685 127.945 175.974 127.748C176.28 127.539 176.519 127.233 176.821 127.016C176.922 126.944 177.188 126.954 177.268 127.035C177.377 127.145 177.475 127.42 177.412 127.521C176.927 128.306 176.389 129.058 175.893 129.837C175.438 130.552 175.659 131.191 176.388 131.086C177.258 130.961 178.137 130.622 178.911 130.191C179.35 129.946 179.519 129.255 179.929 128.905C180.601 128.331 181.37 127.87 182.098 127.363C182.511 128.57 181.585 129.15 180.933 129.86C180.87 129.93 180.753 130.019 180.765 130.074C180.8 130.223 180.892 130.358 180.961 130.499C182.256 129.668 184.2 130.433 185.171 128.727C185.483 128.177 186.049 127.753 186.555 127.341C186.777 127.16 187.139 127.152 187.437 127.064C187.366 127.393 187.366 127.761 187.206 128.039C187.025 128.354 186.685 128.573 186.446 128.86C186.168 129.193 185.923 129.554 185.664 129.904C186.078 130.117 186.47 130.411 186.909 130.526C187.794 130.758 188.525 130.467 189.166 129.777C190.057 128.817 191.024 127.927 191.977 127.026C192.063 126.944 192.345 126.94 192.428 127.016C192.54 127.12 192.646 127.396 192.585 127.495C192.107 128.284 191.628 129.079 191.07 129.81C190.67 130.333 190.146 130.761 189.678 131.231C190.346 131.519 190.998 131.851 191.685 132.083C192.556 132.379 193.446 132.633 194.344 132.834C195.207 133.028 196.059 133.268 196.776 132.325C197.209 131.755 197.892 131.782 197.571 132.726C197.298 133.533 197.691 133.809 198.222 133.903C199.251 134.088 200.256 134.045 201.035 133.108C201.24 132.861 201.74 132.86 202.104 132.745C201.997 133.073 201.904 133.405 201.777 133.725C201.685 133.956 201.545 134.168 201.427 134.389C201.699 134.432 201.973 134.518 202.243 134.509C202.725 134.494 203.244 134.422 202.96 133.722C202.507 132.611 201.971 131.533 201.555 130.409C201.213 129.485 200.922 130.218 200.625 130.386C199.689 130.918 199.194 130.986 199.697 129.649C199.794 129.392 199.617 128.842 199.392 128.695C198.943 128.401 198.371 128.152 197.854 128.161C197.544 128.166 197.241 128.693 196.94 128.989C196.407 129.515 195.93 130.116 195.33 130.546C194.93 130.833 194.356 130.877 193.861 131.029C194.022 130.565 194.092 130.035 194.365 129.651C194.74 129.124 195.244 128.678 195.74 128.251C196.321 127.752 196.313 127.314 195.632 127.006C194.453 126.473 193.195 126.1 192.064 125.488C191.064 124.947 190.262 124.721 189.48 125.763C189.361 125.92 189.03 125.917 188.797 125.988C188.771 125.734 188.632 125.411 188.737 125.236C189.274 124.34 188.905 124.071 188.024 124.072C186.245 124.074 184.465 124.057 182.685 124.072C181.627 124.08 180.36 123.722 180.13 125.374C179.758 125.312 179.265 125.38 179.037 125.166C178.049 124.237 176.864 124.444 175.949 124.918C175.269 125.27 174.935 126.293 174.501 126.937L174.502 126.939ZM156.649 114.41C156.042 112.966 155.548 111.677 154.931 110.451C154.839 110.268 154.056 110.208 153.773 110.383C151.904 111.541 150.075 112.766 148.251 113.994C146.344 115.279 144.504 116.671 142.546 117.869C140.86 118.9 139.764 118.671 138.732 117.068C137.15 114.61 135.286 112.377 133.513 110.07C132.084 108.213 131.103 107.899 129.031 108.922C128.148 109.359 127.341 109.953 126.5 110.475C127.355 110.98 128.174 111.564 129.072 111.973C130.854 112.785 132.799 113.279 134.157 114.845C135.055 115.881 135.95 116.924 136.896 117.916C137.765 118.828 138.71 119.667 139.604 120.557C140.099 121.051 140.477 120.939 141.045 120.576C142.677 119.532 144.379 118.598 146.054 117.619C148.019 116.471 150.093 115.831 152.417 115.94C153.497 115.99 154.617 115.764 155.672 115.488C156.065 115.385 156.328 114.783 156.649 114.41ZM94.1209 282.706C94.1039 280.817 93.8903 280.605 92.2166 280.411C91.4912 280.328 90.7632 280.205 90.0587 280.018C86.2573 279.008 83.3531 276.599 80.7437 273.815C80.2614 273.301 80.0706 273.005 79.521 273.551C78.5943 274.472 77.6356 275.366 76.7815 276.35C76.5841 276.577 76.5841 277.341 76.7769 277.489C79.5432 279.618 82.0004 282.19 85.294 283.577C87.0742 284.328 88.8125 285.222 90.6534 285.772C93.1472 286.519 93.5877 286.148 94.07 283.598C94.1386 283.234 94.1144 282.854 94.1216 282.708L94.1209 282.706ZM93.7876 289.805C93.5053 290.224 93.2243 290.711 92.876 291.145C91.3233 293.078 89.8398 295.077 88.1512 296.884C87.2532 297.844 86.9317 298.604 87.7179 299.709C87.9819 300.08 88.1433 300.525 88.3577 300.933C89.3869 302.898 90.4665 303.197 92.2846 301.95C92.8133 301.587 93.3263 301.133 93.6896 300.611C95.0469 298.659 96.3592 296.671 97.1447 294.4C97.2512 294.092 97.376 293.627 97.2303 293.421C96.4853 292.376 95.6658 291.381 94.8417 290.395C94.6836 290.205 94.3862 290.132 93.7876 289.805ZM33.707 344.872C35.6728 344.892 36.0087 344.501 35.5695 342.584C35.2643 341.25 35.016 339.884 34.5272 338.616C33.7489 336.598 32.2438 335.13 30.0513 335.049C28.5522 334.993 27.0132 335.57 25.5219 335.974C25.0357 336.105 24.6436 336.583 24.2077 336.903C24.605 337.164 25.0834 337.354 25.3834 337.7C26.0963 338.523 26.9341 339.328 27.3498 340.3C28.7215 343.505 30.4565 344.838 33.707 344.872ZM75.3738 271.197C75.3843 271.258 75.3954 271.319 75.4059 271.38C76.4737 271.164 77.7265 271.226 78.5675 270.668C79.951 269.75 81.0404 268.439 81.2979 266.619C81.3724 266.092 81.4835 265.95 80.8424 265.767C78.0918 264.983 75.1216 265.44 72.4363 264.253C72.2351 264.164 71.6234 264.642 71.4273 264.985C71.1136 265.534 70.9869 266.191 70.783 266.803C69.5028 270.658 69.7491 271 73.9701 271.194C74.4367 271.216 74.9053 271.197 75.3725 271.197H75.3738ZM91.4768 100.458C91.6134 101.346 91.9147 102.027 91.7565 102.576C91.5154 103.416 91.8278 103.532 92.497 103.599C96.8049 104.032 101.137 104.271 105.373 105.278C106.225 105.48 107.315 105.85 107.95 105.505C108.762 105.064 109.264 104.005 109.825 103.161C110.298 102.449 110.142 102.038 109.174 102.13C106.873 102.35 104.567 102.515 102.268 102.751C101.933 102.785 101.574 103.027 101.315 103.268C100.317 104.194 100.445 103.344 99.8914 102.729C98.8235 101.542 97.2303 100.82 95.8266 99.9532C95.6501 99.8441 95.2809 99.9722 95.0326 100.07C94.515 100.274 94.0177 100.532 93.5125 100.767C93.4236 100.339 93.4432 99.8284 93.206 99.5108C93.0577 99.3128 92.3905 99.2422 92.1872 99.4043C91.8239 99.6944 91.6356 100.204 91.4768 100.458ZM80.0921 263.889C82.3396 264.227 83.8642 263.122 84.7569 260.793C85.1091 259.872 84.9928 259.576 84.0753 259.626C83.3433 259.667 82.6186 259.834 81.8867 259.899C80.7816 259.996 79.6425 260.249 78.5728 260.082C76.854 259.815 75.1791 259.26 73.4865 258.825C73.2284 258.759 72.7553 258.605 72.7461 258.629C72.4573 259.395 72.0769 260.168 72.0207 260.962C71.9933 261.35 72.4932 261.986 72.9029 262.161C75.1144 263.102 77.3703 263.941 80.0921 263.889ZM140.859 116.502C141.128 116.363 141.38 116.252 141.61 116.109C143.536 114.913 145.464 113.721 147.372 112.497C147.576 112.367 147.657 112.045 147.795 111.812C147.519 111.774 147.244 111.705 146.967 111.702C143.728 111.665 140.461 111.943 137.328 110.768C137.129 110.694 136.843 110.848 136.598 110.896C136.639 111.07 136.63 111.279 136.727 111.411C137.867 112.955 139.015 114.494 140.183 116.018C140.339 116.222 140.616 116.333 140.859 116.502ZM183.006 110.075C180.36 109.812 176.345 112.77 175.655 114.969C175.635 115.036 175.931 115.307 175.997 115.281C176.927 114.905 178.098 114.727 178.712 114.048C180.565 111.999 182.865 112.039 185.303 112.028C186.698 112.02 187.64 113.07 188.909 113.13C189.481 113.157 190.067 112.88 190.647 112.74C190.196 112.508 189.716 112.32 189.298 112.038C187.322 110.706 185.022 110.276 183.007 110.076L183.006 110.075ZM111.741 106.384C111.741 106.392 111.741 106.4 111.741 106.408C112.203 106.408 112.667 106.434 113.127 106.402C114.212 106.328 114.606 105.806 114.283 104.795C114.117 104.277 113.862 103.767 113.549 103.322C112.975 102.507 112.162 102.516 111.461 103.271C110.921 103.853 110.369 104.424 109.832 105.01C109.606 105.256 109.406 105.527 109.194 105.786C109.489 105.985 109.764 106.3 110.084 106.357C110.621 106.453 111.187 106.384 111.741 106.384ZM81.4534 127.061C80.9809 126.63 80.8234 126.366 80.6163 126.319C79.9399 126.165 79.2387 126.122 78.5629 125.967C78.3172 125.911 77.9042 125.556 77.9264 125.511C78.3113 124.713 77.9323 124.463 77.271 124.727C76.6109 124.991 76.043 125.485 75.4346 125.879C75.9032 126.279 76.3737 126.677 76.839 127.082C77.2403 127.431 77.6003 127.844 78.0441 128.124C78.459 128.386 79.0923 128.788 79.3968 128.642C80.1229 128.293 80.711 127.659 81.4534 127.061ZM32.0798 70.4297C32.334 70.4859 32.864 70.7264 33.3626 70.6735C33.7436 70.6329 34.0854 70.2219 34.4449 69.9755C34.2416 69.6893 34.1011 69.2737 33.824 69.1397C32.5131 68.5059 31.1858 67.8942 29.8233 67.3832C28.8639 67.0231 28.8927 67.4694 29.0796 68.3124C29.5455 70.4114 29.4769 70.4271 32.0798 70.4297ZM197.971 112.911C198.02 112.893 197.384 112.941 197.051 113.284C196.357 113.995 195.823 114.863 195.224 115.666C196 116.016 196.754 116.433 197.562 116.676C197.828 116.757 198.416 116.47 198.533 116.207C198.86 115.466 198.957 114.625 199.261 113.87C199.578 113.082 199.516 112.689 197.971 112.911ZM184.944 138.833C184.668 138.786 184.397 138.661 184.166 138.714C182.834 139.013 181.516 139.287 180.49 140.371C180.013 140.875 179.389 141.646 178.449 140.941C178.241 140.785 177.928 140.769 177.663 140.689C177.638 140.956 177.513 141.269 177.607 141.484C177.952 142.265 178.552 142.602 179.396 142.244C180.742 141.672 182.103 141.127 183.411 140.477C183.885 140.241 184.233 139.742 184.622 139.347C184.748 139.219 184.82 139.038 184.944 138.835V138.833ZM71.1601 274.079C70.6503 274.295 70.1896 274.489 69.7289 274.684C69.9824 275.053 70.1902 275.468 70.498 275.785C71.8763 277.203 72.4148 277.148 73.844 275.533C74.2479 275.076 74.2877 274.871 73.5663 274.753C72.7657 274.622 71.9926 274.32 71.1601 274.079ZM194.51 112.805C193.253 112.888 191.968 112.478 191.551 114.018C191.483 114.266 191.474 114.718 191.61 114.805C193.116 115.768 193.92 115.458 194.789 113.87C195.189 113.138 195.803 112.599 194.51 112.805ZM122.595 247.936C122.233 247.886 121.871 247.716 121.692 247.831C120.345 248.701 119.031 249.623 117.722 250.551C117.647 250.604 117.645 250.939 117.709 250.979C117.905 251.098 118.24 251.268 118.36 251.186C119.698 250.268 121.008 249.308 122.321 248.353C122.39 248.303 122.422 248.203 122.595 247.936ZM124.042 247.593C125.551 246.531 126.87 245.612 128.17 244.668C128.276 244.592 128.327 244.302 128.268 244.175C128.206 244.045 127.981 243.922 127.824 243.918C126.799 243.888 124.114 245.795 123.69 246.86C123.648 246.965 123.825 247.157 124.042 247.593ZM132.43 250.036C132.158 249.844 131.922 249.561 131.794 249.603C130.064 250.17 128.997 251.571 127.822 252.835C127.974 252.949 128.151 253.184 128.275 253.159C130.104 252.783 131.152 251.377 132.43 250.036ZM126.303 253.346C125.879 253.489 125.468 253.516 125.223 253.732C124.202 254.629 123.232 255.584 122.241 256.515C122.048 256.697 121.843 256.866 121.643 257.041C121.916 257.07 122.278 257.227 122.448 257.108C123.848 256.135 125.217 255.117 126.569 254.079C126.624 254.038 126.422 253.663 126.303 253.346ZM127.103 248.538C126.27 248.973 125.332 249.331 124.555 249.908C123.831 250.445 123.276 251.214 122.648 251.881C123.788 252.538 124.259 251.333 125.016 250.98C125.873 250.58 126.631 249.962 127.416 249.416C127.521 249.343 127.604 249.102 127.562 248.989C127.507 248.84 127.32 248.739 127.103 248.538ZM147.395 227.374C147.274 227.268 147.158 227.08 147.016 227.058C146.144 226.927 143.489 228.766 143.364 229.615C143.344 229.75 143.8 230.109 143.848 230.078C145.045 229.292 146.219 228.47 147.389 227.644C147.431 227.614 147.395 227.471 147.395 227.374ZM148.435 222.116C148.176 222.057 147.938 221.924 147.744 221.971C146.023 222.392 145.019 223.785 143.837 224.929C143.693 225.069 143.668 225.332 143.587 225.537C143.859 225.549 144.219 225.679 144.386 225.552C145.628 224.612 146.835 223.625 148.043 222.642C148.181 222.529 148.265 222.349 148.435 222.116Z" fill="url(#paint5_linear_10_1082)"/>
<path d="M144.28 90.8868C143.719 90.8868 143.158 90.8875 142.596 90.8868C140.311 90.8859 138.819 89.8493 138.121 87.7769C137.595 86.2014 137.204 84.5722 136.564 83.0464C136.113 81.9727 136.337 81.2114 137.153 80.5841C139.201 79.0111 141.289 77.4911 143.357 75.9444C143.954 75.4974 144.448 75.4902 145.099 75.9803C147.09 77.4807 149.082 79.0026 151.209 80.2906C152.265 80.9297 152.401 81.742 152.176 82.619C151.604 84.848 150.877 87.0372 150.192 89.2368C149.806 90.4764 148.979 91.0136 147.647 90.9044C146.531 90.813 145.402 90.8855 144.28 90.8861L144.28 90.8868Z" fill="url(#paint6_linear_10_1082)"/>
<path d="M158.66 96.5081C156.061 96.5055 154.456 94.6385 154.942 92.7852C155.779 89.5923 156.712 86.4243 157.621 83.251C157.773 82.7223 157.95 82.1851 158.218 81.7101C159.159 80.043 161.158 79.7483 162.525 81.0768C163.929 82.442 165.279 83.8646 166.688 85.2245C167.663 86.1648 167.822 87.2195 167.382 88.454C166.919 89.7537 166.461 91.0574 166.081 92.3827C165.73 93.6073 165.126 94.4967 163.827 94.8744C161.895 95.437 159.988 96.0846 158.66 96.5081Z" fill="url(#paint7_linear_10_1082)"/>
<path d="M145.767 107.432C143.97 107.117 142.51 106.916 141.081 106.579C140.592 106.464 140.057 106.099 139.758 105.69C138.673 104.205 137.706 102.635 136.64 101.136C136.1 100.376 135.246 99.6546 136 98.6907C136.724 97.766 137.454 96.7583 138.925 96.8328C140.696 96.923 142.476 96.9145 144.247 96.8309C145.527 96.7708 146.795 96.5068 148.072 96.3565C149.483 96.1905 150.784 96.2284 151.97 97.3099C153.325 98.5456 153.699 99.2259 152.787 100.832C151.698 102.748 150.573 104.713 149.087 106.303C148.337 107.105 146.754 107.126 145.768 107.432H145.767Z" fill="url(#paint8_linear_10_1082)"/>
<path d="M130.254 97.0707C130.101 97.0302 129.483 96.8616 128.865 96.7009C127.887 96.4473 126.92 96.0663 125.928 95.9768C124.18 95.8193 123.315 94.7522 122.785 93.2773C122.349 92.0644 122.171 90.7235 121.556 89.6198C120.815 88.2913 121.273 87.2594 121.967 86.2727C122.815 85.0663 123.81 83.9607 124.78 82.8439C125.143 82.4263 125.572 82.0362 126.04 81.746C127.957 80.5573 129.391 80.8978 130.311 83.0105C131.375 85.4525 132.197 88.0018 133.103 90.5111C133.352 91.1999 133.477 91.9357 133.747 92.614C134.729 95.0809 133.4 97.0786 130.254 97.0701V97.0707Z" fill="url(#paint9_linear_10_1082)"/>
<path d="M160.78 72.0497C160.616 72.9096 160.526 74.3166 160.065 75.5896C159.339 77.597 157.251 77.8669 155.729 76.8338C153.064 75.0263 150.318 73.337 147.681 71.4922C146.635 70.7604 145.59 69.884 145.822 68.2954C145.991 67.1329 146.337 66.1337 147.528 65.6743C149.246 65.0117 150.97 64.3654 152.697 63.725C152.865 63.6629 153.066 63.691 153.253 63.6793C154.842 63.578 159.963 66.433 160.427 67.9236C160.776 69.0456 160.655 70.314 160.782 72.0497H160.78Z" fill="url(#paint10_linear_10_1082)"/>
<path d="M127.281 71.7915C127.281 71.1374 127.335 70.4767 127.269 69.8291C127.148 68.6477 127.741 67.8687 128.625 67.2538C129.762 66.4644 130.917 65.7018 132.08 64.9516C133.325 64.1485 134.717 63.9877 136.096 64.3889C137.595 64.8255 139.076 65.3685 140.498 66.0135C142.16 66.7669 142.677 69.2319 141.316 70.4617C139.265 72.315 137.011 73.9441 134.842 75.6667C134.264 76.1254 133.697 76.6011 133.098 77.0311C132.166 77.7003 131.138 78.1309 129.966 77.9264C128.827 77.7271 127.883 77.3775 127.79 75.8947C127.705 74.529 127.329 73.1821 127.081 71.8268C127.147 71.8144 127.214 71.8027 127.281 71.7902V71.7915Z" fill="url(#paint11_linear_10_1082)"/>
<path d="M167.758 132.115C167.688 132.298 167.677 132.403 167.62 132.468C166.481 133.756 165.342 135.044 164.18 136.312C164.112 136.386 163.818 136.33 163.689 136.244C163.591 136.177 163.51 135.938 163.553 135.827C164.254 134.047 165.671 132.899 167.166 131.837C167.255 131.774 167.561 132.018 167.758 132.115V132.115Z" fill="url(#paint12_linear_10_1082)"/>
</g>
</g>
<defs>
<filter id="filter0_d_10_1082" x="0" y="0" width="239.785" height="332" filterUnits="userSpaceOnUse" color-interpolation-filters="sRGB">
<feFlood flood-opacity="0" result="BackgroundImageFix"/>
<feColorMatrix in="SourceAlpha" type="matrix" values="0 0 0 0 0 0 0 0 0 0 0 0 0 0 0 0 0 0 127 0" result="hardAlpha"/>
<feOffset dy="4"/>
<feGaussianBlur stdDeviation="2"/>
<feComposite in2="hardAlpha" operator="out"/>
<feColorMatrix type="matrix" values="0 0 0 0 0 0 0 0 0 0 0 0 0 0 0 0 0 0 0.85 0"/>
<feBlend mode="normal" in2="BackgroundImageFix" result="effect1_dropShadow_10_1082"/>
<feBlend mode="normal" in="SourceGraphic" in2="effect1_dropShadow_10_1082" result="shape"/>
</filter>
<linearGradient id="paint0_linear_10_1082" x1="119.892" y1="0" x2="119.892" y2="324" gradientUnits="userSpaceOnUse">
<stop stop-color="#575757"/>
<stop offset="0.0515226" stop-color="#A9A9A9"/>
<stop offset="0.0989583" stop-color="#575757"/>
<stop offset="0.901042" stop-color="#575757"/>
<stop offset="0.954104" stop-color="#A9A9A9"/>
<stop offset="1" stop-color="#575757"/>
</linearGradient>
<linearGradient id="paint1_linear_10_1082" x1="119.892" y1="29.9077" x2="119.892" y2="294.092" gradientUnits="userSpaceOnUse">
<stop stop-color="#A9A9A9"/>
<stop offset="1" stop-color="#A9A9A9" stop-opacity="0"/>
</linearGradient>
<linearGradient id="paint2_linear_10_1082" x1="119.892" y1="29.9077" x2="119.892" y2="294.092" gradientUnits="userSpaceOnUse">
<stop stop-color="#E6E6E6"/>
<stop offset="0.494792" stop-color="#757575"/>
<stop offset="1" stop-color="#E6E6E6"/>
</linearGradient>
<linearGradient id="paint3_linear_10_1082" x1="119.892" y1="29.9077" x2="119.892" y2="294.092" gradientUnits="userSpaceOnUse">
<stop stop-color="#989898"/>
<stop offset="1" stop-color="#A2A2A2"/>
</linearGradient>
<linearGradient id="paint4_linear_10_1082" x1="119.892" y1="29.9077" x2="119.892" y2="294.092" gradientUnits="userSpaceOnUse">
<stop stop-color="#E2E2E2"/>
<stop offset="0.494792" stop-color="#646464"/>
<stop offset="1" stop-color="#E1E1E1"/>
</linearGradient>
<linearGradient id="paint5_linear_10_1082" x1="128.558" y1="45" x2="128.558" y2="347.025" gradientUnits="userSpaceOnUse">
<stop stop-color="#A1A1A1"/>
<stop offset="0.286458" stop-color="#BFBFBF" stop-opacity="0.78"/>
<stop offset="1" stop-color="#BFBFBF" stop-opacity="0"/>
</linearGradient>
<linearGradient id="paint6_linear_10_1082" x1="144.302" y1="75.6108" x2="144.302" y2="90.9182" gradientUnits="userSpaceOnUse">
<stop stop-color="#A1A1A1"/>
<stop offset="0.286458" stop-color="#BFBFBF" stop-opacity="0.78"/>
<stop offset="1" stop-color="#BFBFBF" stop-opacity="0"/>
</linearGradient>
<linearGradient id="paint7_linear_10_1082" x1="161.235" y1="80.2433" x2="161.235" y2="96.5081" gradientUnits="userSpaceOnUse">
<stop stop-color="#A1A1A1"/>
<stop offset="0.286458" stop-color="#BFBFBF" stop-opacity="0.78"/>
<stop offset="1" stop-color="#BFBFBF" stop-opacity="0"/>
</linearGradient>
<linearGradient id="paint8_linear_10_1082" x1="144.495" y1="96.2831" x2="144.495" y2="107.432" gradientUnits="userSpaceOnUse">
<stop stop-color="#A1A1A1"/>
<stop offset="0.286458" stop-color="#BFBFBF" stop-opacity="0.78"/>
<stop offset="1" stop-color="#BFBFBF" stop-opacity="0"/>
</linearGradient>
<linearGradient id="paint9_linear_10_1082" x1="127.621" y1="81.0667" x2="127.621" y2="97.0707" gradientUnits="userSpaceOnUse">
<stop stop-color="#A1A1A1"/>
<stop offset="0.286458" stop-color="#BFBFBF" stop-opacity="0.78"/>
<stop offset="1" stop-color="#BFBFBF" stop-opacity="0"/>
</linearGradient>
<linearGradient id="paint10_linear_10_1082" x1="153.285" y1="63.6766" x2="153.285" y2="77.4235" gradientUnits="userSpaceOnUse">
<stop stop-color="#A1A1A1"/>
<stop offset="0.286458" stop-color="#BFBFBF" stop-opacity="0.78"/>
<stop offset="1" stop-color="#BFBFBF" stop-opacity="0"/>
</linearGradient>
<linearGradient id="paint11_linear_10_1082" x1="134.588" y1="64.1776" x2="134.588" y2="77.9776" gradientUnits="userSpaceOnUse">
<stop stop-color="#A1A1A1"/>
<stop offset="0.286458" stop-color="#BFBFBF" stop-opacity="0.78"/>
<stop offset="1" stop-color="#BFBFBF" stop-opacity="0"/>
</linearGradient>
<linearGradient id="paint12_linear_10_1082" x1="165.65" y1="131.827" x2="165.65" y2="136.346" gradientUnits="userSpaceOnUse">
<stop stop-color="#A1A1A1"/>
<stop offset="0.286458" stop-color="#BFBFBF" stop-opacity="0.78"/>
<stop offset="1" stop-color="#BFBFBF" stop-opacity="0"/>
</linearGradient>
</defs>
</svg>
